<?xml version="1.0" encoding="UTF-8" standalone="no"?>
<!-- Created with Inkscape (http://www.inkscape.org/) -->

<svg
   version="1.1"
   id="svg824"
   xml:space="preserve"
   width="666.66669"
   height="666.66669"
   viewBox="0 0 666.66669 666.66669"
   sodipodi:docname="paint gun.svg"
   inkscape:version="1.1.1 (c3084ef, 2021-09-22)"
   xmlns:inkscape="http://www.inkscape.org/namespaces/inkscape"
   xmlns:sodipodi="http://sodipodi.sourceforge.net/DTD/sodipodi-0.dtd"
   xmlns="http://www.w3.org/2000/svg"
   xmlns:svg="http://www.w3.org/2000/svg"><defs
     id="defs828"><clipPath
       clipPathUnits="userSpaceOnUse"
       id="clipPath840"><path
         d="M 0,500 H 500 V 0 H 0 Z"
         id="path838" /></clipPath><clipPath
       clipPathUnits="userSpaceOnUse"
       id="clipPath848"><path
         d="M 143.594,99.3225 H 356.406 V 80.2314 H 143.594 Z"
         id="path846" /></clipPath><clipPath
       clipPathUnits="userSpaceOnUse"
       id="clipPath852"><path
         d="m 143.594,89.777 c 0,5.272 47.64,9.546 106.406,9.546 58.767,0 106.406,-4.274 106.406,-9.546 0,-5.272 -47.639,-9.546 -106.406,-9.546 -58.766,0 -106.406,4.274 -106.406,9.546"
         id="path850" /></clipPath><radialGradient
       fx="0"
       fy="0"
       cx="0"
       cy="0"
       r="1"
       gradientUnits="userSpaceOnUse"
       gradientTransform="matrix(-105.43256,0,0,6.9550762,250.00024,89.847298)"
       spreadMethod="pad"
       id="radialGradient864"><stop
         style="stop-opacity:1;stop-color:#ffffff"
         offset="0"
         id="stop858" /><stop
         style="stop-opacity:0;stop-color:#ffffff"
         offset="0.999698"
         id="stop860" /><stop
         style="stop-opacity:0;stop-color:#ffffff"
         offset="1"
         id="stop862" /></radialGradient><mask
       maskUnits="userSpaceOnUse"
       x="0"
       y="0"
       width="1"
       height="1"
       id="mask866"><g
         id="g876"><g
           id="g874"><g
             id="g872"><g
               id="g870"><path
                 d="M -32768,32767 H 32767 V -32768 H -32768 Z"
                 style="fill:url(#radialGradient864);stroke:none"
                 id="path868" /></g></g></g></g></mask><radialGradient
       fx="0"
       fy="0"
       cx="0"
       cy="0"
       r="1"
       gradientUnits="userSpaceOnUse"
       gradientTransform="matrix(-105.43256,0,0,6.9550762,250.00024,89.847298)"
       spreadMethod="pad"
       id="radialGradient884"><stop
         style="stop-opacity:1;stop-color:#9f9f9f"
         offset="0"
         id="stop878" /><stop
         style="stop-opacity:1;stop-color:#ffffff"
         offset="0.999698"
         id="stop880" /><stop
         style="stop-opacity:1;stop-color:#ffffff"
         offset="1"
         id="stop882" /></radialGradient><clipPath
       clipPathUnits="userSpaceOnUse"
       id="clipPath910"><path
         d="M 0,500 H 500 V 0 H 0 Z"
         id="path908" /></clipPath></defs><sodipodi:namedview
     id="namedview826"
     pagecolor="#ffffff"
     bordercolor="#666666"
     borderopacity="1.0"
     inkscape:pageshadow="2"
     inkscape:pageopacity="0.0"
     inkscape:pagecheckerboard="0"
     showgrid="false"
     inkscape:zoom="0.75383725"
     inkscape:cx="183.06339"
     inkscape:cy="315.05474"
     inkscape:window-width="1312"
     inkscape:window-height="749"
     inkscape:window-x="0"
     inkscape:window-y="25"
     inkscape:window-maximized="0"
     inkscape:current-layer="g830" /><g
     id="g830"
     inkscape:groupmode="layer"
     inkscape:label="36143219_8391414"
     transform="matrix(1.3333333,0,0,-1.3333333,0,666.66667)"><g
       id="g1717"
       transform="matrix(2.0499342,0,0,2.0499342,-295.73121,-387.00418)"
       style="fill:#cccccc"><g
         id="g920"
         transform="translate(253.2903,324.9795)"
         style="fill:#cccccc"><path
           d="M 0,0 8.462,-2.498 Z"
           style="fill:#cccccc;fill-opacity:1;fill-rule:nonzero;stroke:none"
           id="path922" /></g><g
         id="g924"
         transform="translate(289.038,315.9521)"
         style="fill:#cccccc"><path
           d="M 0,0 -4.939,0.496 -5.643,5.362 C -5.72,5.878 -6.132,6.274 -6.651,6.326 -6.93,6.354 -7.203,6.277 -7.429,6.114 l -8.658,-6.352 c -0.209,1.689 -1.205,3.168 -2.642,4.021 l 8.449,6.212 c 1.191,0.864 2.65,1.265 4.11,1.118 2.721,-0.273 4.89,-2.353 5.288,-5.052 z"
           style="fill:#cccccc;fill-opacity:1;fill-rule:nonzero;stroke:none"
           id="path926" /></g><g
         id="g928"
         transform="translate(267.4494,312.8489)"
         style="fill:#cccccc"><path
           d="m 0,0 c -1.19,0 -2.154,0.964 -2.154,2.154 0,1.189 0.964,2.153 2.154,2.153 1.189,0 2.154,-0.964 2.154,-2.153 C 2.154,0.964 1.189,0 0,0 m 0,6.714 c -2.117,0 -3.892,-1.445 -4.406,-3.401 L -4.408,3.314 -4.44,3.179 C -4.45,3.136 -4.462,3.095 -4.471,3.051 l -8.749,-36.476 c 0,0 3.784,-28.099 -7.288,-28.099 17.518,-7.778 14.189,28.099 14.189,28.099 h 0.015 l 0.649,2.087 h 2.661 v -0.087 c 0,-0.472 0.382,-0.854 0.853,-0.854 0.472,0 0.854,0.382 0.854,0.854 v 3.299 c 0,0.471 -0.382,0.853 -0.854,0.853 -0.471,0 -0.853,-0.382 -0.853,-0.853 v -0.087 H -4.682 L 4.286,0.609 C 4.331,0.733 4.37,0.86 4.404,0.989 v 0 C 4.503,1.361 4.56,1.75 4.56,2.154 4.56,4.672 2.518,6.714 0,6.714"
           style="fill:#cccccc;fill-opacity:1;fill-rule:nonzero;stroke:none"
           id="path930" /></g><g
         id="g932"
         transform="translate(267.1537,316.354)"
         style="fill:#cccccc"><path
           d="M 0,0 C 0.011,0.004 0.023,0.003 0.035,0.007 0.023,0.005 0.012,0.003 0,0"
           style="fill:#cccccc;fill-opacity:1;fill-rule:nonzero;stroke:none"
           id="path934" /></g><g
         id="g936"
         transform="translate(267.7981,316.3375)"
         style="fill:#cccccc"><path
           d="m 0,0 c 0.303,-0.134 0.516,-0.436 0.516,-0.788 0,-0.478 -0.387,-0.865 -0.865,-0.865 -0.477,0 -0.864,0.387 -0.864,0.865 0,0.352 0.213,0.654 0.515,0.788 -0.594,-0.155 -1.035,-0.691 -1.035,-1.335 0,-0.765 0.62,-1.385 1.384,-1.385 0.765,0 1.385,0.62 1.385,1.385 C 1.036,-0.691 0.595,-0.155 0,0"
           style="fill:#cccccc;fill-opacity:1;fill-rule:nonzero;stroke:none"
           id="path938" /></g><g
         id="g940"
         transform="translate(267.7452,316.3539)"
         style="fill:#cccccc"><path
           d="M 0,0 C -0.012,0.003 -0.023,0.005 -0.035,0.007 -0.023,0.003 -0.011,0.004 0,0"
           style="fill:#cccccc;fill-opacity:1;fill-rule:nonzero;stroke:none"
           id="path942" /></g><g
         id="g944"
         transform="translate(285.0007,240.507)"
         style="fill:#cccccc"><path
           d="m 0,0 c 0.594,-2.87 1.156,-5.585 1.648,-7.971 h 1.623 c 1.4,0 2.698,0.633 3.561,1.735 0.863,1.102 1.166,2.513 0.83,3.872 l -9.631,39.762 h -8.126 c 2.662,-2.012 3.522,-5.769 3.522,-5.769 0,0 2.268,-10.887 4.649,-22.353 H -19.42 V 7.595 L -3.374,3.881 c 0,0 2.7,-0.626 3.374,-3.881"
           style="fill:#cccccc;fill-opacity:1;fill-rule:nonzero;stroke:none"
           id="path946" /></g><g
         id="g948"
         transform="translate(298.4685,296.4582)"
         style="fill:#cccccc"><path
           d="m 0,0 h 2.148 v -0.684 c 0,-0.851 0.691,-1.542 1.542,-1.542 h 1.751 c 0.852,0 1.542,0.691 1.542,1.542 v 7.217 c 0,0.851 -0.69,1.542 -1.542,1.542 H 3.69 C 2.839,8.075 2.148,7.384 2.148,6.533 V 5.849 H 0 Z"
           style="fill:#cccccc;fill-opacity:1;fill-rule:nonzero;stroke:none"
           id="path950" /></g><g
         id="g952"
         transform="translate(321.998,289.3985)"
         style="fill:#cccccc"><path
           d="M 0,0 H -1.102 C -1.953,0 -2.644,-0.69 -2.644,-1.542 V -1.927 H -4.34 v -5.064 h 1.696 v -0.385 c 0,-0.851 0.691,-1.542 1.542,-1.542 H 0 c 0.852,0 1.542,0.691 1.542,1.542 v 5.834 C 1.542,-0.69 0.852,0 0,0"
           style="fill:#cccccc;fill-opacity:1;fill-rule:nonzero;stroke:none"
           id="path954" /></g><g
         id="g956"
         transform="translate(285.1811,298.1704)"
         style="fill:#cccccc"><path
           d="m 0,0 c -0.725,-0.037 -1.45,-0.044 -2.175,-0.067 l -1.087,-0.012 -0.273,-0.002 c -0.109,0.002 -0.219,0.007 -0.327,0.023 -0.217,0.031 -0.431,0.093 -0.63,0.185 -0.399,0.185 -0.736,0.493 -0.966,0.866 -0.115,0.186 -0.205,0.388 -0.259,0.599 l -0.132,0.534 c -0.162,0.707 -0.337,1.41 -0.484,2.121 -0.314,1.416 -0.579,2.846 -0.795,4.288 0.516,-1.364 0.982,-2.741 1.399,-4.131 0.218,-0.692 0.409,-1.391 0.613,-2.087 l 0.144,-0.518 c 0.038,-0.14 0.101,-0.271 0.178,-0.391 0.155,-0.241 0.378,-0.44 0.64,-0.555 0.129,-0.06 0.266,-0.104 0.408,-0.126 0.07,-0.013 0.142,-0.016 0.213,-0.02 L -3.262,0.705 -2.175,0.693 C -1.45,0.67 -0.725,0.663 0,0.626 1.45,0.573 2.9,0.469 4.349,0.313 2.9,0.157 1.45,0.052 0,0 m 32.046,-78.695 h -4.597 c -1.454,0 -2.638,-1.184 -2.638,-2.638 0,-0.54 0.166,-1.062 0.48,-1.51 l 0.602,-0.856 -0.875,0.573 c -0.863,0.565 -1.378,1.515 -1.378,2.541 0,1.675 1.363,3.039 3.038,3.039 h 5.044 c -0.67,2.377 -1.403,4.993 -2.168,7.75 h -4.613 c -1.454,0 -2.638,-1.183 -2.638,-2.637 0,-0.54 0.167,-1.063 0.481,-1.511 l 0.6,-0.854 -0.874,0.571 c -0.863,0.565 -1.378,1.515 -1.378,2.541 0,1.675 1.363,3.038 3.039,3.038 h 5.065 c -0.694,2.508 -1.409,5.115 -2.124,7.751 h -4.63 c -1.454,0 -2.637,-1.183 -2.637,-2.638 0,-0.54 0.165,-1.061 0.479,-1.509 l 0.601,-0.856 -0.874,0.573 c -0.863,0.564 -1.378,1.514 -1.378,2.54 0,1.675 1.363,3.039 3.038,3.039 h 5.09 c -0.7,2.59 -1.395,5.196 -2.064,7.75 h -4.642 c -1.454,0 -2.638,-1.183 -2.638,-2.637 0,-0.54 0.167,-1.063 0.481,-1.511 l 0.599,-0.854 -0.873,0.572 c -0.863,0.564 -1.378,1.514 -1.378,2.54 0,1.675 1.363,3.039 3.038,3.039 h 5.112 c -2.883,11.054 -5.217,20.917 -5.217,23.881 0,7.194 6.184,7.713 7.078,7.75 h 1.421 l -0.557,2.499 h 4.1 v 0.956 5.064 0.956 H 25.352 C 24.764,-8.9 23.796,-8.36 22.721,-8.36 H 8.848 L 7.86,-2.817 h 4.212 v 1.105 5.849 1.104 H 6.424 L 5.969,7.791 C 5.689,9.355 4.325,10.494 2.737,10.494 H -7.567 l -1.163,4.25 c -0.329,1.235 -1.452,2.085 -2.727,2.085 h -0.754 c 0,-0.465 -0.064,-0.938 -0.184,-1.411 -0.04,-0.153 -0.088,-0.305 -0.144,-0.457 l -6.48,-20.835 h 3.913 c 1.564,0 2.839,-1.267 2.839,-2.838 0,-1.572 -1.275,-2.839 -2.839,-2.839 h -3.047 v -5.87 c 0,-0.987 0.802,-1.797 1.796,-1.797 h 2.392 v 0.003 h 9.789 v 0.003 h 2.761 L 8.417,-59.799 C 8.823,-61.445 8.456,-63.157 7.41,-64.493 6.363,-65.83 4.789,-66.596 3.091,-66.596 H 1.666 c 0.449,-2.175 0.83,-4.031 1.11,-5.405 1.321,-6.487 -1.257,-11.954 -3.267,-15.032 -0.754,-1.154 0.052,-2.682 1.431,-2.682 h 34.256 c 0,0 -1.296,4.462 -3.15,11.02"
           style="fill:#cccccc;fill-opacity:1;fill-rule:nonzero;stroke:none"
           id="path958" /></g><path
         d="m 218.725,307.481 h -8.128 v -7.661 h 8.128 z"
         style="fill:#cccccc;fill-opacity:1;fill-rule:nonzero;stroke:none"
         id="path960" /><g
         id="g962"
         transform="translate(260.1152,312.8488)"
         style="fill:#cccccc"><path
           d="M 0,0 C -1.412,-0.091 -2.823,-0.13 -4.235,-0.196 L -8.47,-0.308 c -2.823,-0.073 -5.646,-0.084 -8.47,-0.093 l -4.235,0.023 -1.058,0.014 -0.53,0.007 c -0.143,0.001 -0.266,-0.017 -0.393,-0.063 -0.248,-0.088 -0.46,-0.279 -0.581,-0.517 -0.062,-0.119 -0.1,-0.25 -0.113,-0.385 -0.012,-0.137 -0.012,-0.342 -0.018,-0.509 -0.064,-2.824 -0.141,-5.647 -0.307,-8.47 -0.165,2.823 -0.243,5.646 -0.307,8.47 -0.002,0.185 -0.014,0.333 -0.009,0.549 0.009,0.216 0.06,0.433 0.15,0.633 0.18,0.4 0.523,0.722 0.935,0.884 0.204,0.082 0.434,0.121 0.643,0.123 l 0.53,0.007 1.058,0.014 4.235,0.022 c 2.824,-0.009 5.647,-0.02 8.47,-0.092 L -4.235,0.197 C -2.823,0.13 -1.412,0.091 0,0 m -10.508,7.349 1.479,-0.437 -1.085,-3.674 -1.478,0.437 z m 3.159,-0.933 -1.085,-3.674 -0.739,0.219 1.085,3.673 z m 7.927,1.061 c 1.254,-0.371 2.571,0.346 2.941,1.6 l -15.591,4.603 c -0.371,-1.254 0.346,-2.571 1.6,-2.941 l 0.686,-0.203 -0.679,-2.299 -1.075,0.318 -1.891,-6.404 H -26.814 V -20.552 H -3.793 L 1.652,2.151 h -2.224 l 0.86,2.911 -1.075,0.318 0.678,2.299 z"
           style="fill:#cccccc;fill-opacity:1;fill-rule:nonzero;stroke:none"
           id="path964" /></g><path
         d="m 231.035,310.606 h -10.02 v 4.695 h 10.02 z m 0,-4.31 h -10.02 v 2.347 h 10.02 z m -11.094,-16.484 h 12.146 v 27.677 h -12.146 z"
         style="fill:#cccccc;fill-opacity:1;fill-rule:nonzero;stroke:none"
         id="path966" /><g
         id="g968"
         transform="translate(304.692,397.0641)"
         style="fill:#cccccc"><path
           d="m 0,0 -4.014,1.185 1.64,5.556 4.014,-1.185 z m -13.673,2.068 c -3.972,1.19 -7.936,2.406 -11.92,3.553 -3.966,1.208 -7.955,2.341 -11.934,3.507 l -11.946,3.491 c 4.06,-0.867 8.091,-1.858 12.109,-2.899 4.019,-1.039 8.008,-2.186 11.998,-3.331 3.971,-1.208 7.941,-2.42 11.879,-3.733 l 5.892,-2.011 c 1.951,-0.709 3.908,-1.399 5.845,-2.146 z m -4.259,-55.184 c -2.636,-8.93 -10.747,-14.44 -18.079,-12.276 l -2.735,0.808 c 7.332,-2.165 15.443,3.345 18.08,12.275 l 13.349,45.215 2.734,-0.808 z m -33.784,-7.639 -4.884,1.442 c -7.152,2.112 -10.89,10.874 -8.336,19.527 l 13.498,45.718 4.884,-1.442 -13.497,-45.718 c -2.555,-8.653 1.183,-17.415 8.335,-19.527 M -5.97,7.802 -4.385,7.335 -6.026,1.779 -7.61,2.247 Z M 5.509,5.54 c -19.072,6.586 -38.433,12.302 -58.024,17.131 -0.614,0.15 -1.255,-0.219 -1.434,-0.823 -0.631,-2.137 -1.262,-4.274 -1.893,-6.411 -0.178,-0.604 0.168,-1.24 0.773,-1.419 0.877,-0.259 1.754,-0.518 2.63,-0.777 L -67.84,-38.925 c -3.313,-11.222 3.098,-23.004 14.32,-26.317 l 0.441,-0.13 -1.344,-4.553 11.828,-3.492 1.344,4.553 0.441,-0.131 c 11.221,-3.312 23.004,3.099 26.317,14.32 L 0.908,-2.509 C 1.59,-2.71 2.272,-2.911 2.954,-3.113 3.559,-3.291 4.195,-2.945 4.373,-2.34 5.004,-0.204 5.635,1.933 6.266,4.07 6.445,4.675 6.106,5.333 5.509,5.54"
           style="fill:#cccccc;fill-opacity:1;fill-rule:nonzero;stroke:none"
           id="path970" /></g></g></g></svg>
