<?xml version="1.0" encoding="UTF-8" standalone="no"?>
<!-- Created with Inkscape (http://www.inkscape.org/) -->

<svg
   version="1.1"
   id="svg824"
   xml:space="preserve"
   width="666.66669"
   height="666.66669"
   viewBox="0 0 666.66669 666.66669"
   sodipodi:docname="quick product.svg"
   inkscape:version="1.1.1 (c3084ef, 2021-09-22)"
   xmlns:inkscape="http://www.inkscape.org/namespaces/inkscape"
   xmlns:sodipodi="http://sodipodi.sourceforge.net/DTD/sodipodi-0.dtd"
   xmlns="http://www.w3.org/2000/svg"
   xmlns:svg="http://www.w3.org/2000/svg"><defs
     id="defs828"><clipPath
       clipPathUnits="userSpaceOnUse"
       id="clipPath840"><path
         d="M 0,500 H 500 V 0 H 0 Z"
         id="path838" /></clipPath><clipPath
       clipPathUnits="userSpaceOnUse"
       id="clipPath906"><path
         d="M 0,500 H 500 V 0 H 0 Z"
         id="path904" /></clipPath><clipPath
       clipPathUnits="userSpaceOnUse"
       id="clipPath918"><path
         d="M 0,500 H 500 V 0 H 0 Z"
         id="path916" /></clipPath><clipPath
       clipPathUnits="userSpaceOnUse"
       id="clipPath930"><path
         d="M 0,500 H 500 V 0 H 0 Z"
         id="path928" /></clipPath><clipPath
       clipPathUnits="userSpaceOnUse"
       id="clipPath958"><path
         d="M 76.8304,165.806 H 95.3732 V 126.315 H 76.8304 Z"
         id="path956" /></clipPath><clipPath
       clipPathUnits="userSpaceOnUse"
       id="clipPath990"><path
         d="m 49.2703,110.956 h 34.657 V 89.2682 h -34.657 z"
         id="path988" /></clipPath><clipPath
       clipPathUnits="userSpaceOnUse"
       id="clipPath1052"><path
         d="M 0,500 H 500 V 0 H 0 Z"
         id="path1050" /></clipPath><clipPath
       clipPathUnits="userSpaceOnUse"
       id="clipPath1060"><path
         d="m 281.074,92.885 h 9.391 V 79.2785 h -9.391 z"
         id="path1058" /></clipPath><clipPath
       clipPathUnits="userSpaceOnUse"
       id="clipPath1074"><path
         d="m 281.074,43.0786 h 9.391 V 29.4721 h -9.391 z"
         id="path1072" /></clipPath><clipPath
       clipPathUnits="userSpaceOnUse"
       id="clipPath1136"><path
         d="M 0,500 H 500 V 0 H 0 Z"
         id="path1134" /></clipPath><clipPath
       clipPathUnits="userSpaceOnUse"
       id="clipPath1176"><path
         d="M 0,500 H 500 V 0 H 0 Z"
         id="path1174" /></clipPath><clipPath
       clipPathUnits="userSpaceOnUse"
       id="clipPath1192"><path
         d="m 263.144,314.215 h 87.448 v -66.186 h -87.448 z"
         id="path1190" /></clipPath><clipPath
       clipPathUnits="userSpaceOnUse"
       id="clipPath1208"><path
         d="m 263.144,336.771 h 47.329 v -32.909 h -47.329 z"
         id="path1206" /></clipPath><clipPath
       clipPathUnits="userSpaceOnUse"
       id="clipPath1280"><path
         d="m 312.403,350.284 h 34.571 v -48.197 h -34.571 z"
         id="path1278" /></clipPath><clipPath
       clipPathUnits="userSpaceOnUse"
       id="clipPath1432"><path
         d="m 368.969,248.907 h 71.907 v -23 h -71.907 z"
         id="path1430" /></clipPath><clipPath
       clipPathUnits="userSpaceOnUse"
       id="clipPath1460"><path
         d="M 368.182,325.522 H 439.2 v -69.377 h -71.018 z"
         id="path1458" /></clipPath><clipPath
       clipPathUnits="userSpaceOnUse"
       id="clipPath1492"><path
         d="m 397.005,340.721 h 6.618 v -44.497 h -6.618 z"
         id="path1490" /></clipPath></defs><sodipodi:namedview
     id="namedview826"
     pagecolor="#ffffff"
     bordercolor="#666666"
     borderopacity="1.0"
     inkscape:pageshadow="2"
     inkscape:pageopacity="0.0"
     inkscape:pagecheckerboard="0"
     showgrid="false"
     inkscape:zoom="0.75400211"
     inkscape:cx="344.82662"
     inkscape:cy="393.23497"
     inkscape:window-width="1312"
     inkscape:window-height="749"
     inkscape:window-x="0"
     inkscape:window-y="25"
     inkscape:window-maximized="0"
     inkscape:current-layer="layer1" /><g
     id="g830"
     inkscape:groupmode="layer"
     inkscape:label="15926200_5703561"
     transform="matrix(1.3333333,0,0,-1.3333333,0,666.66667)"><g
       id="g912"><g
         id="g914"
         clip-path="url(#clipPath918)"><g
           id="g920"
           transform="translate(460.9674,29.0847)"><path
             d="m 0,0 c 0,-0.145 -94.461,-0.261 -210.958,-0.261 -116.536,0 -210.977,0.116 -210.977,0.261 0,0.144 94.441,0.26 210.977,0.26 C -94.461,0.26 0,0.144 0,0"
             style="fill:#1a2e35;fill-opacity:1;fill-rule:nonzero;stroke:none"
             id="path922" /></g></g></g><g
       id="g924"><g
         id="g926"
         clip-path="url(#clipPath930)"><g
           id="g932"
           transform="translate(91.8507,58.8659)"><path
             d="m 0,0 c 0,0 -4.339,29.835 -3.978,47.192 0.362,17.359 -0.021,36.887 -0.021,36.887 H -2 c 0,0 -1.354,-34.454 0.12,-55.234 C -0.407,8.08 3.473,0 3.473,0 H 0"
             style="fill:#1a2e35;fill-opacity:1;fill-rule:nonzero;stroke:none"
             id="path934" /></g><g
           id="g936"
           transform="translate(104.777,176.5134)"><path
             d="M 0,0 C -0.402,1.02 -0.896,2.081 -1.822,2.668 -3.09,3.472 -4.753,3.138 -6.169,2.637 -12.211,0.5 -17.567,-10.766 -20.01,-16.69 l 8.022,-27.028 C 2.49,-30.286 4.998,-12.665 0,0"
             style="fill:#375a64;fill-opacity:1;fill-rule:nonzero;stroke:none"
             id="path938" /></g><g
           id="g940"
           transform="translate(102.487,178.0876)"><path
             d="M 0,0 C 0.01,-0.005 -0.03,-0.126 -0.117,-0.353 -0.22,-0.611 -0.35,-0.937 -0.509,-1.337 -0.861,-2.188 -1.354,-3.425 -1.944,-4.96 c -1.182,-3.069 -2.686,-7.36 -4.032,-12.194 -1.339,-4.837 -2.262,-9.29 -2.831,-12.53 -0.286,-1.619 -0.501,-2.933 -0.638,-3.843 -0.07,-0.425 -0.126,-0.771 -0.171,-1.046 -0.043,-0.239 -0.071,-0.364 -0.082,-0.363 -0.011,0.002 -0.006,0.129 0.016,0.372 0.029,0.277 0.065,0.626 0.109,1.054 0.098,0.916 0.278,2.238 0.535,3.865 0.512,3.255 1.4,7.729 2.744,12.58 1.349,4.846 2.893,9.138 4.132,12.191 0.619,1.526 1.146,2.752 1.535,3.588 0.182,0.39 0.331,0.708 0.45,0.961 C -0.071,-0.107 -0.01,0.005 0,0"
             style="fill:#1a2e35;fill-opacity:1;fill-rule:nonzero;stroke:none"
             id="path942" /></g><g
           id="g944"
           transform="translate(89.2238,126.3141)"><path
             d="m 0,0 c -7.519,4.154 -11.95,11.971 -12.363,20.551 -0.289,5.998 1.553,11.884 3.641,17.513 0.181,0.489 0.396,1.015 0.849,1.272 0.631,0.356 1.42,0.039 2.05,-0.319 C -0.359,35.905 2.951,29.974 4.712,23.938 5.884,19.923 6.491,15.688 5.949,11.54 5.407,7.392 3.036,2.879 0,0"
             style="fill:#375a64;fill-opacity:1;fill-rule:nonzero;stroke:none"
             id="path946" /></g><g
           id="g948"
           transform="translate(89.2238,126.3141)"><path
             d="m 0,0 c -0.012,0.001 -0.021,0.126 -0.03,0.363 -0.005,0.274 -0.012,0.616 -0.019,1.037 -0.003,0.901 -0.039,2.204 -0.113,3.811 -0.145,3.214 -0.567,7.644 -1.396,12.485 -0.834,4.841 -1.846,9.177 -2.592,12.31 -0.368,1.533 -0.669,2.789 -0.89,3.71 -0.093,0.41 -0.17,0.745 -0.231,1.012 -0.049,0.232 -0.07,0.355 -0.059,0.358 0.011,0.003 0.053,-0.114 0.123,-0.342 0.077,-0.263 0.174,-0.592 0.292,-0.996 0.247,-0.866 0.589,-2.125 0.992,-3.686 0.804,-3.121 1.855,-7.456 2.691,-12.31 C -0.4,12.897 -0.014,8.445 0.071,5.22 0.116,3.607 0.116,2.301 0.079,1.399 0.062,0.979 0.048,0.636 0.037,0.361 0.024,0.124 0.011,0 0,0"
             style="fill:#1a2e35;fill-opacity:1;fill-rule:nonzero;stroke:none"
             id="path950" /></g><g
           id="g952"><g
             id="g954" /><g
             id="g966"><g
               clip-path="url(#clipPath958)"
               opacity="0.300003"
               id="g964"><g
                 transform="translate(89.2238,126.3141)"
                 id="g962"><path
                   d="m 0,0 c -7.519,4.154 -11.95,11.971 -12.363,20.551 -0.289,5.998 1.553,11.884 3.641,17.513 0.181,0.489 0.396,1.015 0.849,1.272 0.631,0.356 1.42,0.039 2.05,-0.319 C -0.359,35.905 2.951,29.974 4.712,23.938 5.884,19.923 6.491,15.688 5.949,11.54 5.407,7.392 3.036,2.879 0,0"
                   style="fill:#000000;fill-opacity:1;fill-rule:nonzero;stroke:none"
                   id="path960" /></g></g></g></g><g
           id="g968"
           transform="translate(97.7062,80.6657)"><path
             d="m 0,0 c 7.4,-1.626 13.493,-6.845 20.632,-9.383 4.723,-1.68 10.065,-2.273 13.836,-5.576 -0.905,2.285 -3.051,3.807 -5.135,5.108 -5.871,3.667 -12.157,6.668 -18.7,8.927 C 7.274,0.236 3.63,1.205 0.208,0.25"
             style="fill:#375a64;fill-opacity:1;fill-rule:nonzero;stroke:none"
             id="path970" /></g><g
           id="g972"
           transform="translate(87.0075,74.0729)"><path
             d="M 0,0 C -9.267,0.149 -19.025,8.04 -28.249,8.511 -18.596,11.627 -4.774,9.081 0,0"
             style="fill:#375a64;fill-opacity:1;fill-rule:nonzero;stroke:none"
             id="path974" /></g><g
           id="g976"
           transform="translate(90.6286,96.3044)"><path
             d="M 0,0 C 4.706,1.696 9.873,1.776 14.815,1.008 19.758,0.239 24.532,-1.346 29.279,-2.924 28.804,0.292 26.2,2.71 23.753,4.85 21.913,6.46 20.058,8.081 17.945,9.314 15.833,10.547 13.424,11.383 10.98,11.279 8.032,11.154 5.226,9.633 3.292,7.404 1.359,5.176 0.32,2.933 0,0"
             style="fill:#375a64;fill-opacity:1;fill-rule:nonzero;stroke:none"
             id="path978" /></g><g
           id="g980"
           transform="translate(71.6085,106.5358)"><path
             d="M 0,0 C -5.833,4.98 -14.669,4.494 -22.338,4.321 -10.55,-1.315 2.153,-9.042 12.306,-17.268 12.617,-11.847 7.369,-6.291 0,0"
             style="fill:#375a64;fill-opacity:1;fill-rule:nonzero;stroke:none"
             id="path982" /></g><g
           id="g984"><g
             id="g986" /><g
             id="g998"><g
               clip-path="url(#clipPath990)"
               opacity="0.300003"
               id="g996"><g
                 transform="translate(71.6085,106.5358)"
                 id="g994"><path
                   d="M 0,0 C -5.833,4.98 -14.669,4.494 -22.338,4.321 -10.55,-1.315 2.153,-9.042 12.306,-17.268 12.617,-11.847 7.369,-6.291 0,0"
                   style="fill:#000000;fill-opacity:1;fill-rule:nonzero;stroke:none"
                   id="path992" /></g></g></g></g><g
           id="g1000"
           transform="translate(93.2521,113.4108)"><path
             d="m 0,0 c 2.933,1.956 5.901,3.82 8.971,5.215 3.071,1.395 5.936,3.617 8.901,5.223 3.846,2.083 7.177,4.977 10.707,7.558 3.529,2.581 7.406,4.912 11.726,5.596 -3.523,0.726 -7.202,0.33 -10.672,-0.617 -3.469,-0.948 -6.764,-2.431 -10.044,-3.909 -4.55,-2.049 -9.18,-4.15 -12.9,-7.477 C 2.969,8.261 -0.393,4.977 0,0"
             style="fill:#375a64;fill-opacity:1;fill-rule:nonzero;stroke:none"
             id="path1002" /></g><g
           id="g1004"
           transform="translate(118.1686,74.0729)"><path
             d="m 0,0 c -0.005,-0.01 -0.106,0.034 -0.293,0.127 -0.219,0.113 -0.486,0.252 -0.809,0.419 -0.698,0.371 -1.7,0.922 -2.961,1.556 -0.625,0.33 -1.317,0.673 -2.068,1.026 -0.744,0.369 -1.551,0.733 -2.407,1.103 -1.711,0.731 -3.622,1.494 -5.706,1.989 -2.077,0.51 -4.148,0.622 -5.944,0.149 -0.907,-0.219 -1.76,-0.434 -2.519,-0.752 -0.762,-0.308 -1.441,-0.67 -2.033,-1.044 -1.188,-0.747 -2.017,-1.539 -2.555,-2.11 -0.538,-0.575 -0.799,-0.927 -0.822,-0.909 -0.009,0.007 0.048,0.1 0.166,0.272 0.116,0.174 0.304,0.419 0.56,0.723 0.514,0.603 1.33,1.434 2.524,2.222 0.595,0.392 1.281,0.773 2.055,1.1 0.773,0.336 1.646,0.567 2.553,0.795 1.836,0.502 3.988,0.395 6.092,-0.124 2.116,-0.503 4.037,-1.281 5.751,-2.031 0.857,-0.38 1.665,-0.755 2.405,-1.137 C -5.262,3.01 -4.574,2.652 -3.955,2.309 -2.704,1.646 -1.718,1.064 -1.039,0.658 -0.728,0.469 -0.471,0.312 -0.26,0.185 -0.084,0.073 0.006,0.01 0,0"
             style="fill:#1a2e35;fill-opacity:1;fill-rule:nonzero;stroke:none"
             id="path1006" /></g><g
           id="g1008"
           transform="translate(80.0949,78.6657)"><path
             d="m 0,0 c 0.008,0.021 0.214,-0.04 0.581,-0.17 0.368,-0.125 0.886,-0.347 1.509,-0.656 1.247,-0.616 2.888,-1.665 4.428,-3.14 1.536,-1.48 2.65,-3.078 3.315,-4.299 0.334,-0.61 0.577,-1.12 0.716,-1.483 0.145,-0.36 0.214,-0.564 0.193,-0.572 -0.053,-0.024 -0.399,0.76 -1.111,1.937 C 8.922,-7.205 7.799,-5.66 6.289,-4.204 4.775,-2.755 3.186,-1.694 1.981,-1.033 0.777,-0.369 -0.021,-0.055 0,0"
             style="fill:#1a2e35;fill-opacity:1;fill-rule:nonzero;stroke:none"
             id="path1010" /></g><g
           id="g1012"
           transform="translate(59.591,107.0016)"><path
             d="m 0,0 c 0.004,0.011 0.14,-0.03 0.395,-0.117 0.287,-0.102 0.656,-0.234 1.112,-0.396 0.494,-0.182 1.08,-0.398 1.754,-0.646 0.683,-0.255 1.426,-0.629 2.265,-0.999 3.337,-1.515 7.777,-4.065 12.065,-7.688 2.115,-1.84 4.027,-3.712 5.626,-5.54 1.594,-1.832 2.942,-3.555 3.993,-5.059 1.059,-1.498 1.861,-2.747 2.411,-3.611 0.26,-0.408 0.47,-0.737 0.634,-0.994 0.143,-0.228 0.215,-0.351 0.205,-0.358 -0.009,-0.006 -0.098,0.104 -0.26,0.32 -0.162,0.216 -0.397,0.538 -0.686,0.961 -0.584,0.843 -1.414,2.068 -2.493,3.546 -1.072,1.481 -2.434,3.182 -4.031,4.993 -1.604,1.808 -3.511,3.661 -5.613,5.491 -4.262,3.6 -8.652,6.164 -11.95,7.727 C 4.597,-1.988 3.864,-1.6 3.19,-1.33 2.526,-1.062 1.948,-0.829 1.461,-0.633 1.015,-0.447 0.653,-0.297 0.373,-0.18 0.125,-0.072 -0.003,-0.011 0,0"
             style="fill:#1a2e35;fill-opacity:1;fill-rule:nonzero;stroke:none"
             id="path1014" /></g><g
           id="g1016"
           transform="translate(104.5338,101.5134)"><path
             d="m 0,0 c -0.006,-0.022 -0.27,0.013 -0.739,0.095 -0.255,0.047 -0.537,0.099 -0.851,0.157 -0.331,0.064 -0.718,0.065 -1.139,0.109 -1.667,0.121 -4.094,-0.016 -6.369,-1.257 -1.148,-0.58 -2.11,-1.364 -2.898,-2.15 -0.799,-0.779 -1.406,-1.593 -1.863,-2.304 -0.93,-1.422 -1.217,-2.451 -1.274,-2.43 -0.018,0.004 0.034,0.265 0.189,0.721 0.17,0.45 0.432,1.1 0.886,1.833 0.44,0.74 1.039,1.583 1.846,2.394 0.794,0.816 1.778,1.63 2.96,2.229 2.346,1.279 4.857,1.381 6.544,1.198 0.426,-0.06 0.817,-0.078 1.148,-0.16 0.314,-0.08 0.595,-0.151 0.85,-0.214 C -0.247,0.099 0.006,0.021 0,0"
             style="fill:#1a2e35;fill-opacity:1;fill-rule:nonzero;stroke:none"
             id="path1018" /></g><g
           id="g1020"
           transform="translate(113.8478,130.4069)"><path
             d="m 0,0 c 0.005,-0.01 -0.116,-0.084 -0.351,-0.216 -0.267,-0.144 -0.609,-0.331 -1.034,-0.561 -0.899,-0.485 -2.193,-1.2 -3.764,-2.125 -1.565,-0.939 -3.408,-2.092 -5.369,-3.494 -1.955,-1.404 -4.056,-3.038 -5.994,-5.021 -0.956,-0.998 -1.838,-2.041 -2.452,-3.175 -0.607,-1.165 -1.187,-2.292 -1.721,-3.374 -1.071,-2.161 -1.944,-4.151 -2.574,-5.861 -0.629,-1.711 -1.021,-3.135 -1.253,-4.127 -0.237,-0.992 -0.323,-1.551 -0.355,-1.546 -0.011,0.002 0.001,0.143 0.037,0.41 0.033,0.268 0.09,0.661 0.192,1.163 0.195,1.005 0.555,2.448 1.159,4.179 0.605,1.73 1.461,3.741 2.521,5.916 0.527,1.089 1.103,2.221 1.707,3.39 0.637,1.185 1.532,2.242 2.501,3.254 1.962,2.008 4.081,3.642 6.055,5.041 1.981,1.395 3.843,2.531 5.427,3.447 1.592,0.902 2.906,1.587 3.824,2.037 0.436,0.208 0.789,0.376 1.063,0.507 C -0.136,-0.043 -0.005,0.011 0,0"
             style="fill:#1a2e35;fill-opacity:1;fill-rule:nonzero;stroke:none"
             id="path1022" /></g><g
           id="g1024"
           transform="translate(87.8615,102.3483)"><path
             d="m 0,0 c -0.022,-0.004 -0.086,0.274 -0.184,0.78 -0.108,0.573 -0.244,1.289 -0.405,2.142 -0.353,1.804 -0.892,4.288 -1.752,6.954 -0.852,2.669 -1.889,4.992 -2.647,6.667 -0.36,0.79 -0.662,1.454 -0.904,1.984 -0.21,0.47 -0.317,0.735 -0.296,0.745 0.02,0.01 0.166,-0.235 0.412,-0.688 0.246,-0.453 0.592,-1.114 0.999,-1.941 0.814,-1.653 1.892,-3.975 2.75,-6.665 C -1.161,7.291 -0.654,4.783 -0.359,2.963 -0.214,2.052 -0.109,1.313 -0.056,0.8 0.001,0.287 0.023,0.003 0,0"
             style="fill:#1a2e35;fill-opacity:1;fill-rule:nonzero;stroke:none"
             id="path1026" /></g><g
           id="g1028"
           transform="translate(87.1911,123.4313)"><path
             d="M 0,0 C -0.232,3.502 -1.373,6.903 -3.014,10.006 -7.512,18.51 -15.965,24.813 -25.399,26.699 -18.491,16.402 -11.583,6.106 -4.674,-4.19 l 2.676,-5.514 C -0.172,-6.707 0.233,-3.501 0,0"
             style="fill:#375a64;fill-opacity:1;fill-rule:nonzero;stroke:none"
             id="path1030" /></g><path
           d="M 116.92,54.015 H 68.729 v 8.541 h 48.191 z"
           style="fill:#ff735d;fill-opacity:1;fill-rule:nonzero;stroke:none"
           id="path1032" /><g
           id="g1034"
           transform="translate(72.3273,55.7097)"><path
             d="M 0,0 4.104,-26.503 H 36.097 L 40.994,0 Z"
             style="fill:#ff735d;fill-opacity:1;fill-rule:nonzero;stroke:none"
             id="path1036" /></g><g
           id="g1038"
           transform="translate(116.8932,54.0046)"><path
             d="m 0,0 c 0,-0.094 -10.87,-0.17 -24.276,-0.17 -13.411,0 -24.279,0.076 -24.279,0.17 0,0.093 10.868,0.169 24.279,0.169 C -10.87,0.169 0,0.093 0,0"
             style="fill:#1a2e35;fill-opacity:1;fill-rule:nonzero;stroke:none"
             id="path1040" /></g></g></g><path
       d="m 233.01,29.282 h 82.677 V 93.05 H 233.01 Z"
       style="fill:#ff735d;fill-opacity:1;fill-rule:nonzero;stroke:none"
       id="path1042" /><path
       d="m 240.021,36.632 h 6.338 v 7.165 h -6.338 z"
       style="fill:#fafafa;fill-opacity:1;fill-rule:nonzero;stroke:none"
       id="path1044" /><g
       id="g1046"><g
         id="g1048"
         clip-path="url(#clipPath1052)"><g
           id="g1054"><g
             id="g1056" /><g
             id="g1066"><g
               clip-path="url(#clipPath1060)"
               opacity="0.300003"
               id="g1064"><path
                 d="m 290.464,79.279 h -9.391 v 13.606 h 9.391 z"
                 style="fill:#ffffff;fill-opacity:1;fill-rule:nonzero;stroke:none"
                 id="path1062" /></g></g></g><g
           id="g1068"><g
             id="g1070" /><g
             id="g1080"><g
               clip-path="url(#clipPath1074)"
               opacity="0.300003"
               id="g1078"><path
                 d="m 290.464,29.472 h -9.391 v 13.606 h 9.391 z"
                 style="fill:#ffffff;fill-opacity:1;fill-rule:nonzero;stroke:none"
                 id="path1076" /></g></g></g><g
           id="g1082"
           transform="translate(253.6461,28.8434)"><path
             d="m 0,0 c -0.25,0 -0.452,14.025 -0.452,31.321 0,17.303 0.202,31.325 0.452,31.325 0.25,0 0.452,-14.022 0.452,-31.325 C 0.452,14.025 0.25,0 0,0"
             style="fill:#1a2e35;fill-opacity:1;fill-rule:nonzero;stroke:none"
             id="path1084" /></g></g></g><path
       d="m 91.413,235.137 h -4.921 v 189.812 h 4.921 z"
       style="fill:#f9f9f9;fill-opacity:1;fill-rule:nonzero;stroke:none"
       id="path1086" /><path
       d="m 99.562,235.137 h -4.165 v 189.812 h 4.165 z"
       style="fill:#f9f9f9;fill-opacity:1;fill-rule:nonzero;stroke:none"
       id="path1088" /><path
       d="m 119.685,268.048 h -15.296 v 156.901 h 15.296 z"
       style="fill:#f9f9f9;fill-opacity:1;fill-rule:nonzero;stroke:none"
       id="path1090" /><path
       d="m 127.347,268.048 h -3.774 v 156.901 h 3.774 z"
       style="fill:#f9f9f9;fill-opacity:1;fill-rule:nonzero;stroke:none"
       id="path1092" /><path
       d="m 139.735,268.048 h -3.774 v 156.901 h 3.774 z"
       style="fill:#f9f9f9;fill-opacity:1;fill-rule:nonzero;stroke:none"
       id="path1094" /><path
       d="m 155.895,268.048 h -3.773 v 156.901 h 3.773 z"
       style="fill:#f9f9f9;fill-opacity:1;fill-rule:nonzero;stroke:none"
       id="path1096" /><path
       d="m 169.352,268.048 h -3.774 v 156.901 h 3.774 z"
       style="fill:#f9f9f9;fill-opacity:1;fill-rule:nonzero;stroke:none"
       id="path1098" /><path
       d="m 213.278,268.048 h -3.774 v 156.901 h 3.774 z"
       style="fill:#f9f9f9;fill-opacity:1;fill-rule:nonzero;stroke:none"
       id="path1100" /><path
       d="m 282.267,240.825 h -8.144 V 424.95 h 8.144 z"
       style="fill:#f9f9f9;fill-opacity:1;fill-rule:nonzero;stroke:none"
       id="path1102" /><path
       d="m 321.847,268.048 h -3.773 v 156.901 h 3.773 z"
       style="fill:#f9f9f9;fill-opacity:1;fill-rule:nonzero;stroke:none"
       id="path1104" /><path
       d="m 338.291,268.048 h -3.773 v 156.901 h 3.773 z"
       style="fill:#f9f9f9;fill-opacity:1;fill-rule:nonzero;stroke:none"
       id="path1106" /><path
       d="m 356.278,232.08 h -9.237 v 193.121 h 9.237 z"
       style="fill:#f9f9f9;fill-opacity:1;fill-rule:nonzero;stroke:none"
       id="path1108" /><path
       d="m 249.578,268.048 h -3.774 v 156.901 h 3.774 z"
       style="fill:#f9f9f9;fill-opacity:1;fill-rule:nonzero;stroke:none"
       id="path1110" /><path
       d="m 196.86,268.048 h -7.729 v 156.901 h 7.729 z"
       style="fill:#f9f9f9;fill-opacity:1;fill-rule:nonzero;stroke:none"
       id="path1112" /><path
       d="m 228.888,268.048 h -7.729 v 156.901 h 7.729 z"
       style="fill:#f9f9f9;fill-opacity:1;fill-rule:nonzero;stroke:none"
       id="path1114" /><path
       d="m 241.09,268.048 h -7.729 v 156.901 h 7.729 z"
       style="fill:#f9f9f9;fill-opacity:1;fill-rule:nonzero;stroke:none"
       id="path1116" /><path
       d="m 298.804,268.048 h -7.729 v 156.901 h 7.729 z"
       style="fill:#f9f9f9;fill-opacity:1;fill-rule:nonzero;stroke:none"
       id="path1118" /><path
       d="m 310.493,268.048 h -7.729 v 156.901 h 7.729 z"
       style="fill:#f9f9f9;fill-opacity:1;fill-rule:nonzero;stroke:none"
       id="path1120" /><path
       d="M 268.934,268.048 H 254.41 v 156.901 h 14.524 z"
       style="fill:#f9f9f9;fill-opacity:1;fill-rule:nonzero;stroke:none"
       id="path1122" /><path
       d="m 184.976,268.048 h -11.911 v 156.901 h 11.911 z"
       style="fill:#f9f9f9;fill-opacity:1;fill-rule:nonzero;stroke:none"
       id="path1124" /><g
       id="g1126"
       transform="translate(121.1647,259.467)"
       style="fill:#f9f9f9"><path
         d="m 0,0 v -33.624 h -3.458 v 30.55 h -7.926 V 0 Z"
         style="fill:#f9f9f9;fill-opacity:1;fill-rule:nonzero;stroke:none"
         id="path1128" /></g><g
       id="g1130"
       style="fill:#f9f9f9"><g
         id="g1132"
         clip-path="url(#clipPath1136)"
         style="fill:#f9f9f9"><g
           id="g1138"
           transform="translate(135.8624,246.3542)"
           style="fill:#f9f9f9"><path
             d="m 0,0 c 1.473,-1.09 3.506,-1.634 6.1,-1.634 2.594,0 4.635,0.544 6.125,1.634 1.489,1.088 2.233,2.545 2.233,4.37 0,1.89 -0.761,3.379 -2.281,4.468 C 10.655,9.926 8.629,10.471 6.1,10.471 3.538,10.471 1.513,9.926 0.024,8.838 -1.465,7.749 -2.209,6.275 -2.209,4.419 -2.209,2.562 -1.473,1.088 0,0 m 13.089,-16.044 c 1.682,1.217 2.522,2.866 2.522,4.948 0,2.081 -0.84,3.722 -2.522,4.923 -1.681,1.201 -4.01,1.802 -6.989,1.802 -2.946,0 -5.259,-0.601 -6.94,-1.802 -1.681,-1.201 -2.522,-2.842 -2.522,-4.923 0,-2.114 0.832,-3.771 2.497,-4.971 1.665,-1.202 3.987,-1.802 6.965,-1.802 2.979,0 5.308,0.608 6.989,1.825 m 4.371,9.991 c 1.137,-1.409 1.706,-3.106 1.706,-5.092 0,-1.953 -0.529,-3.658 -1.585,-5.115 -1.058,-1.458 -2.57,-2.578 -4.54,-3.362 -1.969,-0.785 -4.283,-1.177 -6.941,-1.177 -4.035,0 -7.204,0.864 -9.51,2.594 -2.306,1.729 -3.459,4.083 -3.459,7.06 0,2.018 0.553,3.723 1.658,5.117 1.104,1.392 2.713,2.441 4.827,3.145 -1.729,0.673 -3.043,1.641 -3.939,2.906 -0.897,1.265 -1.345,2.762 -1.345,4.492 0,2.721 1.064,4.882 3.194,6.484 2.13,1.601 4.988,2.402 8.574,2.402 2.37,0 4.443,-0.36 6.221,-1.081 1.777,-0.72 3.161,-1.753 4.155,-3.098 0.992,-1.345 1.489,-2.914 1.489,-4.707 0,-1.73 -0.465,-3.227 -1.393,-4.492 -0.929,-1.265 -2.258,-2.233 -3.987,-2.906 2.113,-0.704 3.738,-1.761 4.875,-3.17"
             style="fill:#f9f9f9;fill-opacity:1;fill-rule:nonzero;stroke:none"
             id="path1140" /></g><g
           id="g1142"
           transform="translate(175.1769,243.2311)"
           style="fill:#f9f9f9"><path
             d="m 0,0 c 1.297,0.641 2.313,1.521 3.05,2.643 0.737,1.12 1.105,2.369 1.105,3.746 0,1.28 -0.344,2.465 -1.032,3.554 -0.689,1.089 -1.706,1.97 -3.051,2.642 -1.344,0.673 -2.947,1.009 -4.803,1.009 -2.434,0 -4.412,-0.665 -5.932,-1.993 -1.522,-1.33 -2.282,-3.099 -2.282,-5.308 0,-2.21 0.76,-3.971 2.282,-5.284 1.52,-1.314 3.578,-1.969 6.172,-1.969 1.697,0 3.194,0.319 4.491,0.96 M 5.356,12.129 C 7.725,9.199 8.911,5.06 8.911,-0.288 c 0,-3.746 -0.641,-6.917 -1.922,-9.511 -1.281,-2.594 -3.074,-4.555 -5.38,-5.884 -2.305,-1.329 -4.995,-1.993 -8.069,-1.993 -3.331,0 -5.989,0.608 -7.974,1.825 l 1.393,2.787 c 1.601,-1.057 3.778,-1.585 6.533,-1.585 3.714,0 6.628,1.176 8.742,3.53 2.113,2.353 3.17,5.771 3.17,10.255 0,0.832 -0.048,1.745 -0.144,2.738 C 4.427,0.049 3.098,-1.368 1.273,-2.377 -0.552,-3.386 -2.65,-3.891 -5.02,-3.891 c -2.209,0 -4.171,0.416 -5.883,1.249 -1.714,0.832 -3.051,2.01 -4.011,3.531 -0.961,1.52 -1.441,3.291 -1.441,5.307 0,2.05 0.496,3.86 1.489,5.429 0.992,1.568 2.361,2.777 4.107,3.626 1.745,0.848 3.706,1.273 5.884,1.273 4.45,0 7.861,-1.465 10.231,-4.395"
             style="fill:#f9f9f9;fill-opacity:1;fill-rule:nonzero;stroke:none"
             id="path1144" /></g><g
           id="g1146"
           transform="translate(198.3053,259.467)"
           style="fill:#f9f9f9"><path
             d="m 0,0 v -33.624 h -3.458 v 30.55 h -7.926 V 0 Z"
             style="fill:#f9f9f9;fill-opacity:1;fill-rule:nonzero;stroke:none"
             id="path1148" /></g><g
           id="g1150"
           transform="translate(225.8034,243.0632)"
           style="fill:#f9f9f9"><path
             d="m 0,0 c 2.226,-1.745 3.338,-4.187 3.338,-7.325 0,-1.953 -0.456,-3.698 -1.368,-5.236 -0.913,-1.537 -2.282,-2.746 -4.107,-3.626 -1.825,-0.881 -4.068,-1.321 -6.725,-1.321 -2.402,0 -4.683,0.392 -6.845,1.177 -2.161,0.784 -3.898,1.833 -5.211,3.146 l 1.681,2.738 c 1.12,-1.153 2.593,-2.089 4.419,-2.81 1.825,-0.721 3.795,-1.081 5.908,-1.081 2.786,0 4.939,0.625 6.46,1.873 1.521,1.249 2.282,2.914 2.282,4.996 0,2.306 -0.857,4.051 -2.57,5.236 -1.713,1.184 -4.603,1.777 -8.67,1.777 h -7.157 l 1.73,16.86 H 1.562 V 13.33 H -13.81 L -14.962,2.618 h 4.323 C -5.772,2.618 -2.226,1.745 0,0"
             style="fill:#f9f9f9;fill-opacity:1;fill-rule:nonzero;stroke:none"
             id="path1152" /></g><g
           id="g1154"
           transform="translate(252.0778,230.3591)"
           style="fill:#f9f9f9"><path
             d="m 0,0 c 1.489,1.088 2.649,2.673 3.482,4.755 0.832,2.081 1.249,4.595 1.249,7.541 0,2.946 -0.417,5.46 -1.249,7.541 -0.833,2.082 -1.993,3.667 -3.482,4.756 -1.489,1.088 -3.21,1.633 -5.164,1.633 -1.953,0 -3.674,-0.545 -5.163,-1.633 -1.489,-1.089 -2.65,-2.674 -3.483,-4.756 -0.833,-2.081 -1.248,-4.595 -1.248,-7.541 0,-2.946 0.415,-5.46 1.248,-7.541 0.833,-2.082 1.994,-3.667 3.483,-4.755 1.489,-1.09 3.21,-1.634 5.163,-1.634 1.954,0 3.675,0.544 5.164,1.634 m -12.104,-2.738 c -2.034,1.376 -3.619,3.353 -4.755,5.931 -1.138,2.578 -1.706,5.613 -1.706,9.103 0,3.49 0.568,6.524 1.706,9.102 1.136,2.578 2.721,4.555 4.755,5.933 2.033,1.376 4.347,2.065 6.94,2.065 2.595,0 4.907,-0.689 6.941,-2.065 2.034,-1.378 3.627,-3.355 4.78,-5.933 C 7.71,18.82 8.286,15.786 8.286,12.296 8.286,8.806 7.71,5.771 6.557,3.193 5.404,0.615 3.811,-1.362 1.777,-2.738 c -2.034,-1.377 -4.346,-2.066 -6.941,-2.066 -2.593,0 -4.907,0.689 -6.94,2.066"
             style="fill:#f9f9f9;fill-opacity:1;fill-rule:nonzero;stroke:none"
             id="path1156" /></g><g
           id="g1158"
           transform="translate(314.5201,259.8244)"
           style="fill:#f9f9f9"><path
             d="M 0,0 V -2.329 L -13.377,-31.96 h -3.561 l 13.149,29.038 h -16.437 v -5.982 h -3.242 V 0 Z"
             style="fill:#f9f9f9;fill-opacity:1;fill-rule:nonzero;stroke:none"
             id="path1160" /></g><g
           id="g1162"
           transform="translate(340.6813,230.7858)"
           style="fill:#f9f9f9"><path
             d="m 0,0 v -2.922 h -22.418 v 2.328 l 13.287,13.013 c 1.673,1.644 2.808,3.066 3.402,4.269 0.593,1.202 0.889,2.412 0.889,3.629 0,1.888 -0.646,3.357 -1.94,4.407 -1.294,1.05 -3.143,1.575 -5.547,1.575 -3.744,0 -6.652,-1.187 -8.721,-3.562 l -2.328,2.01 c 1.247,1.461 2.838,2.586 4.771,3.378 1.932,0.792 4.116,1.187 6.551,1.187 3.257,0 5.837,-0.769 7.74,-2.305 1.902,-1.538 2.853,-3.646 2.853,-6.324 0,-1.644 -0.365,-3.227 -1.096,-4.748 -0.73,-1.523 -2.116,-3.273 -4.154,-5.251 L -17.578,0 Z"
             style="fill:#f9f9f9;fill-opacity:1;fill-rule:nonzero;stroke:none"
             id="path1164" /></g></g></g></g><g
     inkscape:groupmode="layer"
     id="layer1"
     inkscape:label="15926200_5703561 1"><g
       id="g2725"
       transform="matrix(1.3333333,0,0,-1.3333333,-6.6078665,460.19681)"><g
         id="g1166"
         transform="translate(335.6542,181.7915)"><path
           d="M 0,0 -19.967,-22.555 7.21,-32.908 27.362,-8.32 Z"
           style="fill:#ff735d;fill-opacity:1;fill-rule:nonzero;stroke:none"
           id="path1168" /></g><g
         id="g1170"
         transform="translate(52.543,-154.979)"><g
           id="g1172"
           clip-path="url(#clipPath1176)"><g
             id="g1178"
             transform="translate(310.4733,328.4509)"><path
               d="M 0,0 C 0,0 57.682,-59.9 57.127,-60.27 56.572,-60.64 40.118,-80.422 40.118,-80.422 l -60.27,55.834 z"
               style="fill:#ff735d;fill-opacity:1;fill-rule:nonzero;stroke:none"
               id="path1180" /></g><g
             id="g1182"
             transform="translate(263.1442,314.2155)"><path
               d="m 0,0 57.497,-55.279 29.95,-10.908 -60.27,55.834 z"
               style="fill:#ff735d;fill-opacity:1;fill-rule:nonzero;stroke:none"
               id="path1184" /></g><g
             id="g1186"><g
               id="g1188" /><g
               id="g1200"><g
                 clip-path="url(#clipPath1192)"
                 opacity="0.300003"
                 id="g1198"><g
                   transform="translate(263.1442,314.2155)"
                   id="g1196"><path
                     d="m 0,0 57.497,-55.279 29.95,-10.908 -60.27,55.834 z"
                     style="fill:#000000;fill-opacity:1;fill-rule:nonzero;stroke:none"
                     id="path1194" /></g></g></g></g><g
             id="g1202"><g
               id="g1204" /><g
               id="g1216"><g
                 clip-path="url(#clipPath1208)"
                 opacity="0.300003"
                 id="g1214"><g
                   transform="translate(283.111,336.7707)"
                   id="g1212"><path
                     d="M 0,0 -19.967,-22.555 7.21,-32.908 27.362,-8.32 Z"
                     style="fill:#ffffff;fill-opacity:1;fill-rule:nonzero;stroke:none"
                     id="path1210" /></g></g></g></g><g
             id="g1218"
             transform="translate(338.9254,298.9821)"><path
               d="m 0,0 c 0,0 6.577,-0.248 7.321,-0.993 0.745,-0.744 6.578,-12.534 6.578,-12.534 l 1.986,-1.242 0.563,-17.539 -17.488,-1.534 -5.896,-3.51 -5.813,0.525 c -0.991,0.049 -1.804,0.804 -1.926,1.788 l -0.467,3.764 c 0,0 2.397,0.566 2.996,-1.155 l 0.219,-0.812 3.223,-0.236 3.441,2.544 0.225,1.347 -11.224,-0.748 -4.638,3.292 c 0,0 1.982,2.486 3.977,1.454 0.475,-0.245 0.623,-0.204 1.531,-0.745 l 9.381,2.209 -18.099,-0.175 c 0,0 -0.329,3.715 3.583,3.835 2.77,0.085 9.802,0.83 9.802,0.83 0,0 5.388,0.448 5.612,2.244 0.224,1.796 -15.189,5.912 -15.938,7.857 -0.748,1.946 0.151,3.891 3.741,2.768 3.592,-1.122 13.918,-5.537 16.836,-5.312 2.918,0.224 5.537,2.843 5.687,3.966 0.149,1.122 -1.496,4.714 -1.496,4.714 0,0 -3.992,0.287 -3.717,3.398"
               style="fill:#ffc19d;fill-opacity:1;fill-rule:nonzero;stroke:none"
               id="path1220" /></g><g
             id="g1222"
             transform="translate(291.2213,334.3044)"><path
               d="m 0,0 c -0.264,0.081 -7.937,-8.653 -7.937,-8.653 l 5.894,-1.805 8.305,8.554 z"
               style="fill:#ffffff;fill-opacity:1;fill-rule:nonzero;stroke:none"
               id="path1224" /></g><g
             id="g1226"
             transform="translate(273.399,310.3088)"><path
               d="m 0,0 c -0.106,0.097 4.505,5.379 10.3,11.798 5.796,6.42 10.58,11.546 10.686,11.449 C 21.093,23.151 16.482,17.87 10.686,11.449 4.892,5.03 0.106,-0.096 0,0"
               style="fill:#1a2e35;fill-opacity:1;fill-rule:nonzero;stroke:none"
               id="path1228" /></g><g
             id="g1230"
             transform="translate(333.274,254.3361)"><path
               d="m 0,0 c -0.098,-0.106 -13.581,12.079 -30.112,27.213 -16.537,15.139 -29.861,27.493 -29.763,27.599 0.097,0.106 13.577,-12.076 30.114,-27.215 C -13.229,12.463 0.097,0.106 0,0"
               style="fill:#1a2e35;fill-opacity:1;fill-rule:nonzero;stroke:none"
               id="path1232" /></g><g
             id="g1234"
             transform="translate(360.6344,328.9968)"><path
               d="m 0,0 2.59,-2.959 c 0.186,-14.627 15.088,-35.019 15.088,-35.019 l 7.839,33.176 -2.85,12.664 -8.548,0.988 -3.364,4.488 z"
               style="fill:#375a64;fill-opacity:1;fill-rule:nonzero;stroke:none"
               id="path1236" /></g><g
             id="g1238"
             transform="translate(347.4323,360.7062)"><path
               d="m 0,0 c -3.09,-0.921 -7.646,-5.64 -11.598,-10.04 -1.897,-2.112 -0.857,-5.802 1.15,-7.811 l 2.565,-2.568 c 0.859,-0.859 1.983,-1.4 3.19,-1.535 1.412,-0.157 2.828,0.254 3.936,1.143 l 1.785,1.433 c 2.24,1.796 5.497,1.503 7.379,-0.664 l 7.432,-8.554 c 2.049,-2.358 5.676,-2.464 7.858,-0.229 l 0.033,0.035 c 1.898,1.942 2.037,4.999 0.324,7.105 L 7.466,-1.282 C 7.027,-0.743 6.495,-0.288 5.881,0.039 4.679,0.678 2.893,0.863 0,0"
               style="fill:#ff735d;fill-opacity:1;fill-rule:nonzero;stroke:none"
               id="path1240" /></g><g
             id="g1242"
             transform="translate(346.8649,340.0475)"><path
               d="m 0,0 c 0,0 1.812,-1.448 2.635,-1.742 0,0 -1.467,-2.064 -0.057,-3.474 1.411,-1.411 3.391,-1.625 3.391,-1.625 0,0 -0.251,-2.875 2.746,-3.581 2.997,-0.705 11.351,0.518 11.645,1.282 0.294,0.764 1.02,2.842 -0.92,3.312 -1.939,0.47 -4.553,0.46 -4.553,0.46 0,0 3.956,1.472 1.61,4.645 -1.076,1.456 -5.902,0.015 -5.902,0.015 L 6.982,-1.119 c 0,0 3.305,2.328 0.73,4.674 -1.733,1.577 -3.018,0 -3.018,0 z"
               style="fill:#ffc19d;fill-opacity:1;fill-rule:nonzero;stroke:none"
               id="path1244" /></g><g
             id="g1246"
             transform="translate(361.5016,345.9308)"><path
               d="M 0,0 C 0,0 -2.921,0.375 -2.247,2.172 -1.573,3.97 0.6,6.816 1.648,7.865 2.697,8.914 3.896,9.288 4.794,8.914 5.693,8.539 8.765,6.217 9.288,3.521 9.813,0.824 10.337,-2.322 9.888,-3.596 9.438,-4.869 9.002,-5.616 9.002,-5.616 L 3.855,0.714 C 3.855,0.714 1.231,-0.346 0,0"
               style="fill:#ffc19d;fill-opacity:1;fill-rule:nonzero;stroke:none"
               id="path1248" /></g><g
             id="g1250"
             transform="translate(350.692,342.9074)"><path
               d="M 0,0 C -0.045,0.017 0.113,0.577 0.439,1.578 L 0.432,1.533 C 0.411,2.004 0.285,2.586 -0.069,3.142 -0.411,3.682 -1.05,4.187 -1.633,4.809 -2.86,6.051 -4.246,7.454 -5.726,8.951 -6.844,9.982 -8.451,10.22 -9.688,9.807 -10.325,9.613 -10.829,9.265 -11.315,8.873 -11.789,8.5 -12.236,8.146 -12.658,7.813 -13.394,7.212 -14.032,6.691 -14.58,6.245 c -0.457,-0.373 -0.687,-0.58 -0.706,-0.575 -0.095,0.083 0.814,1.037 2.39,2.425 0.395,0.347 0.833,0.723 1.312,1.116 0.458,0.395 1.049,0.83 1.745,1.052 1.375,0.49 3.198,0.241 4.463,-0.926 C -3.849,7.804 -2.496,6.366 -1.31,5.122 -0.743,4.481 -0.138,3.984 0.246,3.332 0.614,2.694 0.713,2.043 0.694,1.533 L 0.693,1.505 0.687,1.487 C 0.288,0.513 0.046,-0.017 0,0"
               style="fill:#1a2e35;fill-opacity:1;fill-rule:nonzero;stroke:none"
               id="path1252" /></g><g
             id="g1254"
             transform="translate(357.2858,349.488)"><path
               d="M 0,0 C 0.107,-0.09 -0.91,-1.468 -2.432,-2.922 -3.95,-4.38 -5.37,-5.338 -5.455,-5.227 c -0.092,0.117 1.166,1.243 2.663,2.681 1.5,1.434 2.68,2.642 2.792,2.546"
               style="fill:#1a2e35;fill-opacity:1;fill-rule:nonzero;stroke:none"
               id="path1256" /></g><g
             id="g1258"
             transform="translate(355.1832,339.1149)"><path
               d="m 0,0 c 0.022,-0.142 -1.238,-0.458 -2.815,-0.705 -1.578,-0.247 -2.874,-0.333 -2.897,-0.191 -0.021,0.143 1.238,0.459 2.816,0.706 C -1.318,0.057 -0.021,0.142 0,0"
               style="fill:#ff9c6a;fill-opacity:1;fill-rule:nonzero;stroke:none"
               id="path1260" /></g><g
             id="g1262"
             transform="translate(362.6364,334.9225)"><path
               d="m 0,0 c 0.054,-0.123 -2.029,-1.083 -4.792,-1.605 -2.762,-0.535 -5.051,-0.412 -5.046,-0.278 -0.003,0.154 2.242,0.264 4.948,0.79 C -2.182,-0.583 -0.054,0.144 0,0"
               style="fill:#ff9c6a;fill-opacity:1;fill-rule:nonzero;stroke:none"
               id="path1264" /></g><g
             id="g1266"
             transform="translate(367.6569,350.7141)"><path
               d="m 0,0 c 0.135,0.03 0.266,-1.347 -0.652,-2.676 -0.903,-1.341 -2.233,-1.721 -2.254,-1.585 -0.066,0.139 1.026,0.681 1.824,1.878 C -0.26,-1.204 -0.153,0.011 0,0"
               style="fill:#ff9c6a;fill-opacity:1;fill-rule:nonzero;stroke:none"
               id="path1268" /></g><g
             id="g1270"
             transform="translate(337.2526,346.4533)"><path
               d="m 0,0 c 0,0 3.793,-5.331 5.492,-5.434 1.194,-0.072 3,2.053 3.97,3.324 0.396,0.519 0.334,1.25 -0.135,1.704 L 5.222,3.576 4.263,3.831 Z"
               style="fill:#1a2e35;fill-opacity:1;fill-rule:nonzero;stroke:none"
               id="path1272" /></g><g
             id="g1274"><g
               id="g1276" /><g
               id="g1288"><g
                 clip-path="url(#clipPath1280)"
                 opacity="0.600006"
                 id="g1286"><g
                   transform="translate(337.4489,346.6115)"
                   id="g1284"><path
                     d="m 0,0 -25.046,-20.166 23.369,-24.359 11.093,42.51 c 0.171,0.486 0.161,0.956 -0.163,1.332 l -4.228,4.1 -0.959,0.256 z"
                     style="fill:#ffffff;fill-opacity:1;fill-rule:nonzero;stroke:none"
                     id="path1282" /></g></g></g></g><g
             id="g1290"
             transform="translate(431.0426,413.965)"><path
               d="m 0,0 -2.768,-46.475 c -0.47,-7.903 -2.776,-19.417 -15.238,-18.103 -10.726,1.955 -12.857,12.396 -12.41,19.771 0.212,3.498 0.381,6.416 0.38,6.777 0,0 -11.765,1.818 -11.922,13.578 -0.076,5.683 0.721,17.403 1.564,27.996 0.907,11.377 10.412,20.144 21.825,20.156 l 1.133,0.001 C -5.198,22.998 1.041,12.213 0,0"
               style="fill:#ffc19d;fill-opacity:1;fill-rule:nonzero;stroke:none"
               id="path1292" /></g><g
             id="g1294"
             transform="translate(401.0065,375.9348)"><path
               d="m 0,0 c 0,0 7.413,-0.427 15.309,4.542 0,0 -3.728,-8.594 -15.464,-7.546 z"
               style="fill:#ff9c6a;fill-opacity:1;fill-rule:nonzero;stroke:none"
               id="path1296" /></g><g
             id="g1298"
             transform="translate(410.2887,411.2795)"><path
               d="M 0,0 C 0.215,-0.253 1.643,0.736 3.605,0.647 5.566,0.588 6.96,-0.507 7.185,-0.27 7.294,-0.165 7.083,0.285 6.477,0.779 5.88,1.271 4.848,1.768 3.625,1.814 2.402,1.859 1.354,1.442 0.741,0.995 0.117,0.546 -0.106,0.114 0,0"
               style="fill:#1a2e35;fill-opacity:1;fill-rule:nonzero;stroke:none"
               id="path1300" /></g><g
             id="g1302"
             transform="translate(409.5094,405.5861)"><path
               d="M 0,0 C -0.028,-0.839 0.658,-1.555 1.533,-1.602 2.407,-1.647 3.141,-1.006 3.17,-0.167 3.198,0.671 2.512,1.389 1.638,1.435 0.763,1.481 0.029,0.839 0,0"
               style="fill:#1a2e35;fill-opacity:1;fill-rule:nonzero;stroke:none"
               id="path1304" /></g><g
             id="g1306"
             transform="translate(404.401,398.0099)"><path
               d="m 0,0 c 0.009,0.103 -1.115,0.296 -2.936,0.527 -0.461,0.047 -0.898,0.138 -0.976,0.453 -0.109,0.333 0.084,0.831 0.307,1.368 0.433,1.117 0.885,2.288 1.361,3.516 1.89,5.005 3.259,9.121 3.056,9.195 C 0.609,15.133 -1.087,11.137 -2.977,6.131 -3.432,4.897 -3.867,3.72 -4.281,2.595 -4.455,2.07 -4.755,1.475 -4.519,0.783 -4.394,0.438 -4.055,0.188 -3.759,0.109 -3.463,0.019 -3.203,0.015 -2.975,0.001 -1.143,-0.096 -0.007,-0.103 0,0"
               style="fill:#1a2e35;fill-opacity:1;fill-rule:nonzero;stroke:none"
               id="path1308" /></g><g
             id="g1310"
             transform="translate(410.2614,417.4821)"><path
               d="M 0,0 C 0.202,-0.43 1.764,-0.059 3.648,-0.104 5.533,-0.108 7.091,-0.521 7.297,-0.096 7.388,0.107 7.084,0.5 6.434,0.871 5.789,1.241 4.788,1.554 3.658,1.569 2.528,1.583 1.523,1.296 0.875,0.943 0.22,0.59 -0.088,0.205 0,0"
               style="fill:#e1e1e1;fill-opacity:1;fill-rule:nonzero;stroke:none"
               id="path1312" /></g><g
             id="g1314"
             transform="translate(392.4537,416.7541)"><path
               d="M 0,0 C 0.18,-0.369 1.736,-0.085 3.592,-0.162 5.45,-0.205 6.968,-0.586 7.19,-0.23 7.289,-0.06 7.006,0.28 6.381,0.607 5.762,0.935 4.788,1.221 3.675,1.257 2.561,1.292 1.559,1.069 0.903,0.783 0.242,0.496 -0.079,0.176 0,0"
               style="fill:#e1e1e1;fill-opacity:1;fill-rule:nonzero;stroke:none"
               id="path1316" /></g><g
             id="g1318"
             transform="translate(430.0905,405.2556)"><path
               d="m 0,0 c 0.201,0.087 8.079,2.398 7.83,-5.643 -0.249,-8.04 -8.27,-6.132 -8.277,-5.9 C -0.454,-11.313 0,0 0,0"
               style="fill:#ffc19d;fill-opacity:1;fill-rule:nonzero;stroke:none"
               id="path1320" /></g><g
             id="g1322"
             transform="translate(432.194,396.6818)"><path
               d="M 0,0 C 0.036,0.025 0.137,-0.102 0.37,-0.218 0.599,-0.331 0.993,-0.416 1.417,-0.272 2.276,0.014 3.033,1.34 3.117,2.788 3.16,3.519 3.028,4.221 2.787,4.806 2.56,5.401 2.192,5.824 1.767,5.913 1.344,6.025 1.033,5.778 0.928,5.555 0.813,5.333 0.859,5.172 0.816,5.159 0.793,5.14 0.647,5.299 0.723,5.629 0.761,5.788 0.861,5.975 1.055,6.123 1.253,6.274 1.539,6.345 1.836,6.304 2.455,6.242 2.995,5.654 3.261,5.012 3.56,4.366 3.726,3.577 3.677,2.756 3.575,1.137 2.698,-0.354 1.526,-0.653 0.956,-0.783 0.489,-0.598 0.252,-0.401 0.009,-0.195 -0.028,-0.013 0,0"
               style="fill:#ff9c6a;fill-opacity:1;fill-rule:nonzero;stroke:none"
               id="path1324" /></g><g
             id="g1326"
             transform="translate(441.6862,417.4675)"><path
               d="m 0,0 c -1.468,2.948 -1.613,6.35 -2.299,9.57 -0.685,3.221 -2.208,6.616 -5.222,7.942 l -0.072,-0.026 c -2.698,1.317 -6.121,1.58 -8.541,-0.184 -0.264,4.207 -3.679,7.77 -7.67,9.13 -3.99,1.36 -10.559,1.193 -14.573,-0.096 -3.102,-0.996 -6.197,-3.273 -10.004,-6.671 -1.603,-1.432 -3.098,-2.989 -4.447,-4.663 l -4.323,-10.666 2.617,-5.945 c 0.152,-0.403 0.312,-0.806 0.511,-1.207 l 0.004,0.025 1.863,-12.265 c 0.41,3.279 0.995,14.744 1.405,18.024 5.095,-0.148 9.837,1.572 13.516,5.099 1.94,1.862 3.533,4.254 6.023,5.271 3.21,1.31 6.825,-0.072 10.01,-1.442 l -0.13,0.135 c 1.644,-0.908 3.11,-2.136 4.293,-3.594 -1.202,-6.427 -1.005,-13.112 0.585,-19.454 0.239,-0.955 0.936,-2.938 1.828,-3.358 1.75,-0.826 2.366,0.973 3.521,1.869 0.848,0.659 2.039,0.667 3.332,0.57 0.904,1.944 1.929,5.257 2.799,8.161 1.064,-0.409 2.216,-0.581 3.35,-0.468 -0.286,0.851 -0.571,1.702 -0.856,2.554 0.427,-0.317 0.873,-0.641 1.392,-0.756 0.521,-0.115 1.139,0.038 1.409,0.497 C 0.671,-1.355 0.307,-0.617 0,0"
               style="fill:#e1e1e1;fill-opacity:1;fill-rule:nonzero;stroke:none"
               id="path1328" /></g><g
             id="g1330"
             transform="translate(421.776,433.6921)"><path
               d="m 0,0 c -0.025,-0.028 0.468,-0.344 1.096,-1.157 0.622,-0.809 1.286,-2.186 1.515,-4.011 0.119,-0.909 0.163,-1.917 0.085,-2.994 -0.073,-1.077 -0.243,-2.224 -0.413,-3.433 -0.166,-1.21 -0.346,-2.487 -0.363,-3.828 -0.009,-0.67 0.021,-1.354 0.117,-2.042 0.1,-0.677 0.223,-1.412 0.685,-2.021 0.366,-0.496 1.021,-0.751 1.61,-0.674 0.591,0.061 1.134,0.335 1.545,0.732 0.815,0.824 1.083,1.924 1.341,2.892 L 6.97,-16.548 c 0.338,-0.911 0.686,-1.812 1.246,-2.553 0.55,-0.743 1.347,-1.266 2.185,-1.402 0.418,-0.068 0.847,-0.031 1.221,0.125 0.382,0.152 0.671,0.439 0.878,0.747 0.198,0.316 0.315,0.67 0.322,1.019 0.006,0.348 -0.106,0.687 -0.309,0.936 l -0.132,-0.101 c 0.827,-1.092 1.739,-1.713 2.376,-2.066 0.321,-0.177 0.581,-0.287 0.757,-0.358 0.176,-0.067 0.271,-0.096 0.273,-0.09 0.003,0.008 -0.085,0.052 -0.255,0.132 -0.169,0.084 -0.42,0.207 -0.73,0.394 -0.615,0.372 -1.496,1.005 -2.287,2.086 l -0.132,-0.101 c 0.363,-0.446 0.333,-1.179 -0.048,-1.743 -0.191,-0.278 -0.457,-0.532 -0.792,-0.661 -0.333,-0.134 -0.724,-0.166 -1.105,-0.099 -0.77,0.133 -1.513,0.623 -2.027,1.329 -0.527,0.706 -0.865,1.583 -1.197,2.496 l -0.142,0.387 -0.106,-0.4 c -0.258,-0.966 -0.534,-2.021 -1.278,-2.763 -0.368,-0.355 -0.864,-0.602 -1.382,-0.654 -0.52,-0.062 -1.048,0.145 -1.369,0.571 -0.404,0.527 -0.534,1.224 -0.629,1.89 -0.095,0.672 -0.127,1.342 -0.12,2 0.014,1.319 0.186,2.589 0.346,3.798 0.162,1.209 0.324,2.361 0.389,3.453 0.068,1.091 0.014,2.114 -0.12,3.035 C 2.546,-3.29 1.839,-1.894 1.18,-1.092 0.515,-0.285 0,0 0,0"
               style="fill:#ffffff;fill-opacity:1;fill-rule:nonzero;stroke:none"
               id="path1332" /></g><g
             id="g1334"
             transform="translate(384.7848,424.9206)"><path
               d="M 0,0 C -0.004,-0.004 0.026,-0.033 0.088,-0.087 0.163,-0.15 0.253,-0.227 0.364,-0.321 0.485,-0.426 0.64,-0.549 0.837,-0.674 1.03,-0.805 1.25,-0.962 1.521,-1.1 c 1.049,-0.594 2.753,-1.232 4.94,-1.261 2.166,-0.034 4.81,0.544 7.245,2.098 2.457,1.512 4.686,3.838 6.565,6.551 0.954,1.355 1.751,2.756 2.612,4.042 0.855,1.286 1.783,2.465 2.869,3.371 1.074,0.912 2.292,1.555 3.517,1.802 0.611,0.135 1.216,0.132 1.791,0.077 0.575,-0.072 1.113,-0.228 1.604,-0.43 0.983,-0.41 1.757,-1.026 2.332,-1.643 0.578,-0.623 0.949,-1.263 1.196,-1.807 0.454,-1.113 0.435,-1.805 0.478,-1.797 0.005,10e-4 0.004,0.042 -0.001,0.124 -0.008,0.098 -0.018,0.217 -0.029,0.362 -0.035,0.318 -0.137,0.78 -0.349,1.352 -0.236,0.56 -0.602,1.222 -1.182,1.869 -0.578,0.641 -1.361,1.284 -2.369,1.719 -0.504,0.213 -1.058,0.38 -1.654,0.461 -0.594,0.064 -1.23,0.071 -1.862,-0.064 C 27.952,15.479 26.693,14.822 25.59,13.895 24.474,12.973 23.524,11.773 22.659,10.479 21.789,9.185 20.991,7.787 20.047,6.445 18.181,3.752 15.984,1.451 13.572,-0.049 11.181,-1.591 8.598,-2.174 6.463,-2.167 4.311,-2.164 2.625,-1.564 1.572,-1.006 0.513,-0.439 0.023,0.032 0,0"
               style="fill:#ffffff;fill-opacity:1;fill-rule:nonzero;stroke:none"
               id="path1336" /></g><g
             id="g1338"
             transform="translate(392.3815,411.8278)"><path
               d="M 0,0 C 0.216,-0.253 1.644,0.736 3.605,0.647 5.567,0.588 6.961,-0.507 7.185,-0.27 7.294,-0.165 7.084,0.285 6.478,0.779 5.881,1.271 4.848,1.768 3.625,1.814 2.402,1.859 1.354,1.442 0.742,0.995 0.117,0.546 -0.106,0.113 0,0"
               style="fill:#1a2e35;fill-opacity:1;fill-rule:nonzero;stroke:none"
               id="path1340" /></g><g
             id="g1342"
             transform="translate(393.5084,405.9587)"><path
               d="M 0,0 C -0.028,-0.839 0.658,-1.555 1.534,-1.601 2.407,-1.647 3.141,-1.006 3.17,-0.167 3.199,0.672 2.512,1.389 1.638,1.436 0.763,1.482 0.029,0.839 0,0"
               style="fill:#1a2e35;fill-opacity:1;fill-rule:nonzero;stroke:none"
               id="path1344" /></g><g
             id="g1346"
             transform="translate(389.9342,433.7458)"><path
               d="m 0,0 c -1.074,-1.256 -2.678,-2.363 -4.308,-2.09 -0.481,0.081 -1.714,0.616 -1.714,0.616 -0.594,-0.313 -0.576,-2.283 -0.213,-2.847 0.363,-0.565 1.154,-1.346 1.154,-1.346 -1.985,-0.919 -3.707,-0.306 -5.714,0.566 0.154,-3.513 2.342,-6.865 5.495,-8.42 1.008,-0.498 2.249,-0.809 3.228,-0.255 0.86,0.487 1.261,1.495 1.569,2.435 1.129,3.454 1.828,7.048 2.077,10.674 z"
               style="fill:#e1e1e1;fill-opacity:1;fill-rule:nonzero;stroke:none"
               id="path1348" /></g><g
             id="g1350"
             transform="translate(403.7242,391.4738)"><path
               d="M 0,0 C -0.016,-0.066 0.432,-0.257 1.205,-0.253 1.968,-0.254 3.068,0.001 4.018,0.742 4.967,1.485 5.48,2.491 5.664,3.231 5.855,3.981 5.778,4.46 5.71,4.461 5.622,4.469 5.552,4.015 5.281,3.358 5.017,2.706 4.504,1.847 3.667,1.191 2.828,0.538 1.871,0.248 1.174,0.149 0.472,0.045 0.014,0.087 0,0"
               style="fill:#1a2e35;fill-opacity:1;fill-rule:nonzero;stroke:none"
               id="path1352" /></g><g
             id="g1354"
             transform="translate(394.9137,74.1159)"><path
               d="m 0,0 6.963,-24.711 c 0,0 -22.178,-15.549 -21.325,-20.244 l 47.251,12.11 -9.307,38.958 z"
               style="fill:#375a64;fill-opacity:1;fill-rule:nonzero;stroke:none"
               id="path1356" /></g><g
             id="g1358"
             transform="translate(415.9752,55.2477)"><path
               d="M 0,0 C 0.978,-0.022 1.866,-0.913 1.885,-1.914 1.904,-2.915 1.027,-3.85 0.05,-3.846 c -0.978,0.005 -2.076,1.041 -1.987,2.038 0.091,0.997 1.18,2.037 2.127,1.792"
               style="fill:#e1e1e1;fill-opacity:1;fill-rule:nonzero;stroke:none"
               id="path1360" /></g><g
             id="g1362"
             transform="translate(427.8024,41.2712)"><path
               d="M 0,0 -1.088,3.889 -45.985,-9.177 c 0,0 -1.874,-1.476 -1.266,-2.933 z"
               style="fill:#1a2e35;fill-opacity:1;fill-rule:nonzero;stroke:none"
               id="path1364" /></g><g
             id="g1366"
             transform="translate(401.6891,49.2849)"><path
               d="M 0,0 C 0.065,-0.234 1.245,-0.046 2.565,-0.516 3.898,-0.949 4.734,-1.823 4.924,-1.675 5.125,-1.574 4.436,-0.249 2.827,0.29 1.223,0.844 -0.104,0.204 0,0"
               style="fill:#1a2e35;fill-opacity:1;fill-rule:nonzero;stroke:none"
               id="path1368" /></g><g
             id="g1370"
             transform="translate(397.4313,45.7722)"><path
               d="m 0,0 c 0.003,-0.242 1.101,-0.388 2.128,-1.187 1.051,-0.768 1.513,-1.798 1.74,-1.729 0.226,0.019 0.047,1.443 -1.249,2.412 C 1.331,0.476 -0.05,0.227 0,0"
               style="fill:#1a2e35;fill-opacity:1;fill-rule:nonzero;stroke:none"
               id="path1372" /></g><g
             id="g1374"
             transform="translate(395.7594,38.9235)"><path
               d="M 0,0 C 0.222,0.004 0.255,1.267 -0.654,2.409 -1.555,3.56 -2.768,3.791 -2.817,3.569 -2.9,3.341 -2.03,2.826 -1.298,1.876 -0.545,0.944 -0.235,-0.035 0,0"
               style="fill:#1a2e35;fill-opacity:1;fill-rule:nonzero;stroke:none"
               id="path1376" /></g><g
             id="g1378"
             transform="translate(400.0739,55.2673)"><path
               d="M 0,0 C 0.149,-0.19 1.128,0.406 2.454,0.65 3.775,0.921 4.9,0.732 4.971,0.967 5.062,1.172 3.858,1.793 2.3,1.483 0.74,1.187 -0.159,0.156 0,0"
               style="fill:#1a2e35;fill-opacity:1;fill-rule:nonzero;stroke:none"
               id="path1380" /></g><g
             id="g1382"
             transform="translate(410.6051,72.4938)"><path
               d="m 0,0 0.732,-27.008 c 0,0 -26.459,-11.388 -26.878,-16.325 l 52.456,0.419 -0.114,43.196 z"
               style="fill:#375a64;fill-opacity:1;fill-rule:nonzero;stroke:none"
               id="path1384" /></g><g
             id="g1386"
             transform="translate(427.9879,47.279)"><path
               d="m 0,0 c 1.018,-0.276 1.729,-1.44 1.501,-2.493 -0.228,-1.053 -1.377,-1.803 -2.399,-1.545 -1.022,0.258 -1.916,1.628 -1.576,2.647 0.341,1.021 1.738,1.827 2.669,1.325"
               style="fill:#e1e1e1;fill-opacity:1;fill-rule:nonzero;stroke:none"
               id="path1388" /></g><g
             id="g1390"
             transform="translate(436.9313,29.1608)"><path
               d="m 0,0 -0.194,4.772 -50.228,-2.03 c 0,0 -2.327,-1.059 -2.051,-2.742 z"
               style="fill:#1a2e35;fill-opacity:1;fill-rule:nonzero;stroke:none"
               id="path1392" /></g><g
             id="g1394"
             transform="translate(411.8444,44.8405)"><path
               d="m 0,0 c 0.011,-0.263 1.293,-0.371 2.56,-1.205 1.288,-0.8 1.946,-1.932 2.18,-1.825 0.237,0.052 -0.158,1.618 -1.709,2.6 C 1.489,0.565 -0.057,0.24 0,0"
               style="fill:#1a2e35;fill-opacity:1;fill-rule:nonzero;stroke:none"
               id="path1396" /></g><g
             id="g1398"
             transform="translate(406.0573,42.4382)"><path
               d="m 0,0 c -0.058,-0.255 1.056,-0.692 1.934,-1.795 0.91,-1.076 1.138,-2.274 1.394,-2.262 0.24,-0.039 0.406,1.499 -0.712,2.85 C 1.511,0.152 0.003,0.25 0,0"
               style="fill:#1a2e35;fill-opacity:1;fill-rule:nonzero;stroke:none"
               id="path1400" /></g><g
             id="g1402"
             transform="translate(402.8317,35.5456)"><path
               d="M 0,0 C 0.232,-0.054 0.579,1.26 -0.09,2.692 -0.748,4.129 -1.96,4.686 -2.067,4.467 -2.21,4.25 -1.427,3.484 -0.896,2.301 -0.337,1.13 -0.255,0.023 0,0"
               style="fill:#1a2e35;fill-opacity:1;fill-rule:nonzero;stroke:none"
               id="path1404" /></g><g
             id="g1406"
             transform="translate(411.3473,51.4245)"><path
               d="M 0,0 C 0.109,-0.238 1.281,0.133 2.73,0.044 4.181,-0.016 5.311,-0.504 5.442,-0.278 5.59,-0.087 4.482,0.876 2.774,0.956 1.068,1.05 -0.127,0.205 0,0"
               style="fill:#1a2e35;fill-opacity:1;fill-rule:nonzero;stroke:none"
               id="path1408" /></g><g
             id="g1410"
             transform="translate(438.7653,254.3361)"><path
               d="m 0,0 1.711,-12.468 c 0.555,-4.046 0.561,-8.15 0.019,-12.198 l -1.157,-8.632 c 0,0 -2.327,-64.465 -2.439,-62.108 0,0 1.255,-47.268 2.197,-57.303 1.712,-18.233 0.173,-51.733 0.173,-51.733 h -29.826 l -10.743,105.893 -6.669,66.04 -11.601,30.057 z"
               style="fill:#1a2e35;fill-opacity:1;fill-rule:nonzero;stroke:none"
               id="path1412" /></g><g
             id="g1414"
             transform="translate(368.5426,251.3337)"><path
               d="m 0,0 0.328,-12.615 1.794,-91.71 c 0.243,-4.304 1.083,-8.553 2.495,-12.626 l 24.428,-70.445 1.395,-4.823 17.941,4.444 L 35.039,1.733 Z"
               style="fill:#1a2e35;fill-opacity:1;fill-rule:nonzero;stroke:none"
               id="path1416" /></g><g
             id="g1418"
             transform="translate(392.111,221.0378)"><path
               d="m 0,0 c -0.01,0 -0.013,-0.15 -0.011,-0.445 0.007,-0.322 0.015,-0.753 0.026,-1.304 0.036,-1.178 0.086,-2.861 0.151,-5.014 0.121,-4.355 0.426,-10.651 0.856,-18.428 0.907,-15.55 2.597,-37.01 5.232,-60.625 2.595,-23.629 5.46,-44.952 7.554,-60.378 1.063,-7.689 1.924,-13.92 2.525,-18.263 0.306,-2.131 0.545,-3.796 0.713,-4.962 0.084,-0.544 0.15,-0.971 0.199,-1.288 0.048,-0.29 0.077,-0.438 0.087,-0.437 0.01,0.002 -0.001,0.153 -0.03,0.445 -0.035,0.319 -0.083,0.749 -0.145,1.296 -0.142,1.169 -0.346,2.84 -0.608,4.976 -0.559,4.349 -1.361,10.589 -2.35,18.287 -1.993,15.441 -4.795,36.768 -7.388,60.387 -2.635,23.607 -4.387,45.05 -5.393,60.588 -0.482,7.769 -0.847,14.061 -1.034,18.412 -0.111,2.15 -0.197,3.832 -0.257,5.008 -0.033,0.551 -0.061,0.981 -0.08,1.303 C 0.025,-0.149 0.01,0.001 0,0"
               style="fill:#375a64;fill-opacity:1;fill-rule:nonzero;stroke:none"
               id="path1420" /></g><g
             id="g1422"
             transform="translate(411.3375,49.7956)"><path
               d="m 0,0 c 0.032,0 0.062,-0.399 0.091,-1.138 0.02,-0.834 0.046,-1.89 0.077,-3.172 l -0.333,0.028 c -0.013,-0.025 -0.002,-0.127 0.075,-0.169 0.076,-0.036 0.099,-0.018 0.089,-0.023 h 0.009 c 0.007,0 0.012,0.003 0.004,0 l -0.026,-0.009 -0.065,-0.028 -0.138,-0.062 -0.284,-0.136 c -0.194,-0.097 -0.393,-0.194 -0.596,-0.295 -0.409,-0.208 -0.838,-0.426 -1.283,-0.651 -0.903,-0.464 -1.876,-0.964 -2.906,-1.494 -2.087,-1.079 -4.406,-2.277 -6.855,-3.542 -4.398,-2.331 -8.516,-4.216 -11.097,-6.177 -1.294,-0.969 -2.24,-1.89 -2.757,-2.624 -0.546,-0.724 -0.644,-1.227 -0.676,-1.219 -0.041,-0.005 -0.004,0.55 0.508,1.332 0.483,0.795 1.412,1.779 2.7,2.803 2.584,2.078 6.693,4.019 11.083,6.347 2.456,1.271 4.791,2.458 6.881,3.5 1.041,0.511 2.023,0.995 2.936,1.443 0.452,0.216 0.886,0.423 1.302,0.62 0.208,0.096 0.41,0.188 0.609,0.279 l 0.295,0.13 0.148,0.062 0.078,0.029 0.047,0.016 0.041,0.008 0.027,0.004 c -0.005,-0.004 0.02,0.013 0.098,-0.024 0.08,-0.044 0.093,-0.149 0.084,-0.175 l -0.359,-1.033 0.025,1.06 c 0.031,1.282 0.057,2.338 0.077,3.172 C -0.062,-0.399 -0.032,0 0,0"
               style="fill:#1a2e35;fill-opacity:1;fill-rule:nonzero;stroke:none"
               id="path1424" /></g><g
             id="g1426"><g
               id="g1428" /><g
               id="g1440"><g
                 clip-path="url(#clipPath1432)"
                 opacity="0.300003"
                 id="g1438"><g
                   transform="translate(368.9694,233.6755)"
                   id="g1436"><path
                     d="M 0,0 C 0,0 9.763,-5.271 28.05,-7.348 54.177,-10.315 71.906,3.379 71.906,3.379 L 70.54,15.231 0,10.581 Z"
                     style="fill:#000000;fill-opacity:1;fill-rule:nonzero;stroke:none"
                     id="path1434" /></g></g></g></g><g
             id="g1442"
             transform="translate(442.0094,360.1613)"><path
               d="m 0,0 c 8.879,-12.386 5.134,-42.812 5.134,-42.812 l -4.15,-63.504 -0.005,-7.512 c 0,0 0.318,-6.184 -22.098,-13.657 -22.416,-7.472 -55.533,5.606 -55.533,5.606 0,0 6.087,46.337 10.545,72.054 0.582,3.361 1.171,6.5 1.756,9.416 3.493,17.415 11.831,33.487 24.007,46.419 l 0.209,0.222 27.2,6.409 c 0,0 7.563,-5.147 12.935,-12.641"
               style="fill:#ff735d;fill-opacity:1;fill-rule:nonzero;stroke:none"
               id="path1444" /></g><g
             id="g1446"
             transform="translate(366.3121,245.4557)"><path
               d="M 0,0 C 0,0 22.339,-11.017 42.304,-8.354 62.269,-5.692 76.68,5.085 76.68,5.085 v -6.97 c 0,0 -15.81,-13.215 -37.595,-13.2 -21.785,0.015 -40.04,7.911 -40.04,7.911 z"
               style="fill:#e1e1e1;fill-opacity:1;fill-rule:nonzero;stroke:none"
               id="path1448" /></g><g
             id="g1450"
             transform="translate(373.8492,297.8312)"><path
               d="m 0,0 71.696,-4.941 -1.077,-17.022 -72.781,7.76 z"
               style="fill:#e1e1e1;fill-opacity:1;fill-rule:nonzero;stroke:none"
               id="path1452" /></g><g
             id="g1454"><g
               id="g1456" /><g
               id="g1468"><g
                 clip-path="url(#clipPath1460)"
                 opacity="0.300003"
                 id="g1466"><g
                   transform="translate(368.1823,259.113)"
                   id="g1464"><path
                     d="m 0,0 c 0,0 6.366,-4.788 20.593,-2.201 14.226,2.587 36.862,5.821 41.821,10.132 4.958,4.312 7.899,10.564 8.477,17.678 0.577,7.114 -0.996,40.8 -0.996,40.8 L 46.892,25.393 1.294,9.225 Z"
                     style="fill:#000000;fill-opacity:1;fill-rule:nonzero;stroke:none"
                     id="path1462" /></g></g></g></g><g
             id="g1470"
             transform="translate(425.068,366.3937)"><path
               d="m 0,0 c 6.895,0.003 14.25,-11.145 15.001,-17.688 0.751,-6.543 -1.901,-59.283 -2.98,-65.29 -2.167,-12.078 -12.104,-14.213 -12.104,-14.213 0,0 -23.816,-6.876 -39.846,-8.129 -16.03,-1.252 -27.408,5.283 -27.408,5.283 l -3.894,-0.248 0.973,20.063 4.044,-0.676 43.972,10.769 c 0,0 -2.804,45.083 -2.554,45.835 0,0 2.254,24.283 24.796,24.294"
               style="fill:#375a64;fill-opacity:1;fill-rule:nonzero;stroke:none"
               id="path1472" /></g><g
             id="g1474"
             transform="translate(361.1569,286.0588)"><path
               d="m 0,0 c -0.005,0.018 0.202,0.086 0.601,0.2 0.452,0.123 1.031,0.28 1.747,0.475 1.587,0.406 3.773,0.966 6.447,1.651 5.514,1.36 13.023,3.212 21.319,5.257 4.074,1.012 7.954,1.977 11.496,2.856 l 0.129,0.033 0.096,-0.091 c 1.022,-0.964 2.021,-1.883 2.996,-2.729 0.955,-0.866 1.978,-1.526 2.932,-2.213 1.907,-1.343 3.506,-2.68 4.619,-3.981 1.124,-1.292 1.829,-2.456 2.266,-3.267 0.219,-0.407 0.37,-0.729 0.465,-0.949 0.096,-0.22 0.135,-0.338 0.123,-0.344 -0.027,-0.013 -0.25,0.431 -0.722,1.215 -0.477,0.781 -1.214,1.907 -2.351,3.149 -1.127,1.253 -2.715,2.534 -4.633,3.847 -0.944,0.66 -2.011,1.334 -2.99,2.203 -0.992,0.845 -2,1.756 -3.036,2.719 L 41.729,9.973 C 38.188,9.081 34.309,8.103 30.237,7.077 21.927,5.089 14.405,3.29 8.882,1.968 6.191,1.35 3.991,0.845 2.396,0.478 1.67,0.322 1.084,0.197 0.625,0.098 0.219,0.017 0.004,-0.017 0,0"
               style="fill:#1a2e35;fill-opacity:1;fill-rule:nonzero;stroke:none"
               id="path1476" /></g><g
             id="g1478"
             transform="translate(422.9362,368.0495)"><path
               d="m 0,0 c -1.646,0.212 -27.547,-9.672 -30.675,-37.924 -0.971,-8.774 0.024,-28.148 10.968,-31.249 10.945,-3.102 32.967,6.423 32.967,6.423 0,0 10.247,37.108 7.931,43.789 C 18.877,-12.281 9.485,-1.221 0,0"
               style="fill:#375a64;fill-opacity:1;fill-rule:nonzero;stroke:none"
               id="path1480" /></g><g
             id="g1482"
             transform="translate(403.8239,343.6887)"><path
               d="m 0,0 c 0.018,-0.001 0.023,-0.168 0.02,-0.484 -0.012,-0.377 -0.027,-0.833 -0.044,-1.383 -0.058,-1.281 -0.135,-2.997 -0.229,-5.079 -0.195,-4.287 -0.428,-10.211 -0.558,-16.757 -0.126,-6.549 -0.134,-12.478 -0.126,-16.771 0,-2.084 0,-3.801 0.001,-5.084 -0.007,-0.549 -0.014,-1.006 -0.019,-1.382 -0.011,-0.317 -0.024,-0.483 -0.043,-0.484 -0.018,0 -0.039,0.165 -0.063,0.481 -0.021,0.376 -0.046,0.832 -0.078,1.381 -0.057,1.2 -0.115,2.937 -0.167,5.084 -0.101,4.293 -0.153,10.229 -0.025,16.785 0.13,6.553 0.421,12.482 0.71,16.768 0.144,2.143 0.28,3.876 0.394,5.071 0.056,0.548 0.103,1.002 0.142,1.377 C -0.047,-0.163 -0.019,0.001 0,0"
               style="fill:#1a2e35;fill-opacity:1;fill-rule:nonzero;stroke:none"
               id="path1484" /></g><g
             id="g1486"><g
               id="g1488" /><g
               id="g1500"><g
                 clip-path="url(#clipPath1492)"
                 opacity="0.300003"
                 id="g1498"><g
                   transform="translate(397.0192,317.486)"
                   id="g1496"><path
                     d="M 0,0 C -0.343,-10.564 5.638,-21.262 5.638,-21.262 L 6.604,23.235 C 2.253,19.619 0.283,8.75 0,0"
                     style="fill:#000000;fill-opacity:1;fill-rule:nonzero;stroke:none"
                     id="path1494" /></g></g></g></g><g
             id="g1502"
             transform="translate(422.6207,370.3488)"><path
               d="m 0,0 c -12.715,-2.55 -25.311,-13.259 -33.52,-26.66 -8.209,-13.401 -10.704,-49.086 -10.704,-49.086 l 8.232,-0.273 c 0,0 -3.485,20.161 5.346,45.05 8.83,24.888 30.711,29.273 30.711,29.273 z"
               style="fill:#e1e1e1;fill-opacity:1;fill-rule:nonzero;stroke:none"
               id="path1504" /></g><g
             id="g1506"
             transform="translate(440.069,348.7057)"><path
               d="m 0,0 c 0.018,0 0.034,-0.189 0.049,-0.549 0.011,-0.419 0.023,-0.94 0.039,-1.576 0.027,-1.369 0.019,-3.35 -0.02,-5.797 -0.075,-4.895 -0.376,-11.652 -0.804,-19.104 -0.428,-7.455 -0.787,-14.202 -0.956,-19.089 -0.077,-2.388 -0.139,-4.347 -0.185,-5.788 -0.023,-0.636 -0.043,-1.156 -0.059,-1.575 -0.019,-0.359 -0.038,-0.548 -0.056,-0.548 -0.018,0 -0.034,0.189 -0.049,0.548 -0.01,0.419 -0.022,0.94 -0.038,1.577 -0.028,1.368 -0.021,3.349 0.018,5.797 0.076,4.895 0.377,11.652 0.805,19.106 0.428,7.453 0.787,14.198 0.956,19.085 0.076,2.389 0.139,4.348 0.185,5.789 0.024,0.636 0.044,1.157 0.059,1.575 C -0.037,-0.189 -0.018,0 0,0"
               style="fill:#1a2e35;fill-opacity:1;fill-rule:nonzero;stroke:none"
               id="path1508" /></g><g
             id="g1510"
             transform="translate(429.0748,362.0949)"><path
               d="m 0,0 c -0.042,-0.096 -1.426,0.692 -3.88,1.238 -2.426,0.555 -6.016,0.718 -9.62,-0.578 -3.603,-1.302 -6.264,-3.719 -7.776,-5.694 -1.542,-1.986 -2.105,-3.475 -2.199,-3.428 -0.028,0.011 0.087,0.389 0.376,1.042 0.287,0.652 0.781,1.567 1.528,2.608 1.467,2.074 4.171,4.616 7.895,5.962 3.725,1.339 7.428,1.106 9.881,0.446 C -2.556,1.272 -1.592,0.882 -0.954,0.562 -0.315,0.245 0.015,0.027 0,0"
               style="fill:#1a2e35;fill-opacity:1;fill-rule:nonzero;stroke:none"
               id="path1512" /></g><g
             id="g1514"
             transform="translate(398.5338,368.653)"><path
               d="M 0,0 31.328,8.083 31.827,3.212 19.687,1.333 -2.481,-9.011 Z"
               style="fill:#375a64;fill-opacity:1;fill-rule:nonzero;stroke:none"
               id="path1516" /></g><g
             id="g1518"
             transform="translate(422.817,368.653)"><path
               d="m 0,0 c 0,0 20.261,-3.825 23.647,-19.947 0,0 -1.224,8.688 -5.75,13.168 C 8.771,2.257 -0.196,1.696 -0.196,1.696 Z"
               style="fill:#e1e1e1;fill-opacity:1;fill-rule:nonzero;stroke:none"
               id="path1520" /></g><g
             id="g1522"
             transform="translate(422.5553,370.7819)"><path
               d="M 0,0 C 0.142,0.024 0.316,-0.567 0.39,-1.321 0.463,-2.075 0.405,-2.689 0.262,-2.692 0.118,-2.695 -0.057,-2.104 -0.128,-1.371 -0.199,-0.638 -0.142,-0.024 0,0"
               style="fill:#1a2e35;fill-opacity:1;fill-rule:nonzero;stroke:none"
               id="path1524" /></g></g></g></g></g></svg>
