<?xml version="1.0" encoding="UTF-8" standalone="no"?>
<!-- Generator: Adobe Illustrator 27.5.0, SVG Export Plug-In . SVG Version: 6.00 Build 0)  -->

<svg
   version="1.1"
   x="0px"
   y="0px"
   viewBox="0 0 500 300"
   xml:space="preserve"
   id="svg1317"
   sodipodi:docname="1359948_182861-OWZNSE-17.svg"
   width="500"
   height="300"
   inkscape:version="1.1.1 (c3084ef, 2021-09-22)"
   xmlns:inkscape="http://www.inkscape.org/namespaces/inkscape"
   xmlns:sodipodi="http://sodipodi.sourceforge.net/DTD/sodipodi-0.dtd"
   xmlns="http://www.w3.org/2000/svg"
   xmlns:svg="http://www.w3.org/2000/svg"><defs
   id="defs1321">
	
	
	
	
</defs><sodipodi:namedview
   id="namedview1319"
   pagecolor="#ffffff"
   bordercolor="#666666"
   borderopacity="1.0"
   inkscape:pageshadow="2"
   inkscape:pageopacity="0.0"
   inkscape:pagecheckerboard="0"
   showgrid="false"
   inkscape:zoom="1.054"
   inkscape:cx="249.52562"
   inkscape:cy="249.52562"
   inkscape:window-width="1440"
   inkscape:window-height="900"
   inkscape:window-x="0"
   inkscape:window-y="0"
   inkscape:window-maximized="0"
   inkscape:current-layer="svg1317" />
<g
   id="BACKGROUND">
</g>
<g
   id="g1243"
   transform="translate(0.94876658,-214.42125)">
		<path
   style="fill:#646a8f"
   d="m 164.269,289.89 h -48.667 l -16.167,7.5 c 0,0 -18.667,0.667 -26.833,11.5 -8.167,10.833 -15.5,25.667 -15.5,53.833 0,28.167 7.333,43 15.5,53.833 8.167,10.833 26.833,11.5 26.833,11.5 l 16.167,7.5 h 48.667 l 5.5,-3.167 h 154.333 l 14.833,3.167 h 44.167 l 8.917,-5.25 c 0,0 6.917,-0.083 20.417,-2.417 34.167,-6.667 30.333,-65.167 30.333,-65.167 0,0 3.833,-58.5 -30.333,-65.167 -13.5,-2.333 -20.417,-2.417 -20.417,-2.417 l -8.917,-5.25 h -44.167 l -14.833,3.167 H 169.769 Z"
   id="path1141" />
		<path
   style="fill:#525878"
   d="m 57.102,362.724 h 385.667 c 0,0 3.833,-58.5 -30.333,-65.167 -13.5,-2.333 -20.417,-2.417 -20.417,-2.417 l -8.917,-5.25 h -44.167 l -14.833,3.167 H 169.769 l -5.5,-3.167 h -48.667 l -16.167,7.5 c 0,0 -18.667,0.667 -26.833,11.5 -8.166,10.834 -15.5,25.667 -15.5,53.834 z"
   id="path1143" />
		<polygon
   style="fill:#878fb3"
   points="69.294,394.224 166.961,407.323 159.099,362.724 63.976,362.724 "
   id="polygon1145" />
		<polygon
   style="fill:#646a8f"
   points="69.294,331.224 166.961,318.124 159.099,362.724 63.976,362.724 "
   id="polygon1147" />
		<path
   style="fill:#1c191a"
   d="m 179.769,424.39 c 0,0 55.25,-20 106.5,-15.5 51.25,4.5 67.333,6.667 85.333,12.833 -27,1.334 -177.166,5.334 -191.833,2.667 z"
   id="path1149" />
		<path
   style="fill:#878fb3"
   d="m 401.269,362.724 c 0,41.163 -10.332,48.499 -10.333,48.5 l 32.458,-0.583 c 0,0 10.125,2.375 13.5,-14 3.375,-16.375 3,-33.917 3,-33.917 z"
   id="path1151" />
		<path
   style="fill:#ef4136"
   d="m 423.394,410.64 c 0,0 -3.183,11.455 -14.958,15.417 l 6.985,1.091 c 0,0 14.788,-6.995 16.026,-19.168 h -10e-4 c -3.88,3.631 -8.052,2.66 -8.052,2.66 z"
   id="path1153" />
		<path
   style="fill:#414042"
   d="m 64.352,391.557 7.5,2.667 c 0,0 -3.917,-10.5 -3.917,-31.5 h -7.5 c 10e-4,10 2.917,26.333 3.917,28.833 z"
   id="path1155" />
		<path
   style="fill:#a7a9ac"
   d="m 67.519,395.474 5.044,1.621 c 1.219,0.392 2.192,1.312 2.658,2.505 2.197,5.629 9.346,22.167 18.548,25.165 h -6.667 c 0,0 -12.896,-7.083 -19.583,-29.291 z"
   id="path1157" />
		<path
   style="fill:#525878"
   d="m 67.519,395.474 5.044,1.621 c 0.506,0.163 0.954,0.434 1.356,0.76 l 0.023,-0.004 85.273,8.727 -0.549,-1.38 -86.815,-10.975 -7.5,-2.667 z"
   id="path1159" />
		<g
   id="g1165">
			<path
   style="fill:#2b2a2b"
   d="m 260.267,424.757 c 2.682,-0.047 5.381,-0.096 8.09,-0.148 l 4.306,-16.365 c -1.717,-0.017 -3.433,-0.013 -5.145,0.013 z"
   id="path1161" />
			<path
   style="fill:#2b2a2b"
   d="M 342.424,422.777 326.41,412.762 c -1.231,-0.139 -2.491,-0.279 -3.791,-0.419 l 16.297,10.541 c 1.191,-0.036 2.358,-0.072 3.508,-0.107 z"
   id="path1163" />
		</g>
		<path
   style="fill:#878fb3"
   d="m 115.602,435.557 h 48.667 l 5.5,-3.167 h 154.333 l 14.833,3.167 h 44.167 l 8.917,-5.25 c 0,0 6.917,-0.083 20.417,-2.417 1.028,-0.201 2.021,-0.451 2.981,-0.742 l -6.981,-1.091 c 0,0 -91.629,5.833 -135.773,4.583 -44.144,-1.25 -149.894,0.5 -178.894,-5.875 h -6.667 l -0.832,0.755 c 6.875,2.307 13.165,2.536 13.165,2.536 z"
   id="path1167" />
		<path
   style="fill:#878fb3"
   d="m 189.347,426.632 3.754,9.414 c 0.654,1.64 1.761,3.061 3.191,4.096 l 1.501,1.087 c 1.173,0.849 2.759,-0.258 2.366,-1.652 l -3.052,-10.816 c -0.31,-1.099 -1.204,-1.936 -2.321,-2.173 l -0.933,-0.198 -0.353,-1.211 c -0.16,-0.548 -0.52,-1.018 -1.017,-1.297 -0.016,-0.009 -0.032,-0.018 -0.049,-0.027 -1.803,-0.99 -3.849,0.867 -3.087,2.777 z"
   id="path1169" />
		<path
   style="fill:#1c191a"
   d="m 179.769,301.057 c 0,0 55.25,20 106.5,15.5 51.25,-4.5 67.333,-6.667 85.333,-12.833 -27,-1.334 -177.166,-5.334 -191.833,-2.667 z"
   id="path1171" />
		<path
   style="fill:#646a8f"
   d="m 401.269,362.724 c 0,-41.163 -10.332,-48.499 -10.333,-48.5 l 32.458,0.583 c 0,0 10.125,-2.375 13.5,14 3.375,16.375 3,33.917 3,33.917 z"
   id="path1173" />
		<path
   style="fill:#ef4136"
   d="m 423.394,314.807 c 0,0 -3.183,-11.455 -14.958,-15.417 l 6.985,-1.091 c 0,0 14.788,6.995 16.026,19.168 h -10e-4 c -3.88,-3.631 -8.052,-2.66 -8.052,-2.66 z"
   id="path1175" />
		<path
   style="fill:#1c191a"
   d="m 64.352,333.89 7.5,-2.667 c 0,0 -3.917,10.5 -3.917,31.5 h -7.5 c 10e-4,-9.999 2.917,-26.333 3.917,-28.833 z"
   id="path1177" />
		<path
   style="fill:#a7a9ac"
   d="m 67.519,329.974 5.044,-1.621 c 1.219,-0.392 2.192,-1.312 2.658,-2.505 2.197,-5.629 9.346,-22.167 18.548,-25.165 h -6.667 c 0,-10e-4 -12.896,7.082 -19.583,29.291 z"
   id="path1179" />
		<path
   style="fill:#434b6b"
   d="m 67.519,329.974 5.044,-1.621 c 0.506,-0.163 0.954,-0.434 1.356,-0.76 l 0.023,0.004 85.273,-8.728 -0.549,1.38 -86.815,10.975 -7.5,2.667 z"
   id="path1181" />
		<path
   style="fill:#2b2a2b"
   d="m 260.267,300.691 c 2.682,0.047 5.381,0.096 8.09,0.148 l 4.306,16.365 c -1.717,0.018 -3.433,0.013 -5.145,-0.013 z"
   id="path1183" />
		<path
   style="fill:#2b2a2b"
   d="m 342.424,302.67 -16.014,10.015 c -1.231,0.139 -2.491,0.279 -3.791,0.419 l 16.297,-10.541 c 1.191,0.036 2.358,0.072 3.508,0.107 z"
   id="path1185" />
		<path
   style="fill:#434b6b"
   d="m 115.602,289.89 h 48.667 l 5.5,3.167 h 154.333 l 14.833,-3.167 h 44.167 l 8.917,5.25 c 0,0 6.917,0.083 20.417,2.417 1.028,0.201 2.021,0.451 2.981,0.742 l -6.981,1.091 c 0,0 -91.629,-5.833 -135.773,-4.583 -44.144,1.25 -149.894,-0.5 -178.894,5.875 h -6.667 l -0.832,-0.755 c 6.875,-2.307 13.165,-2.536 13.165,-2.536 z"
   id="path1187" />
		<path
   style="fill:#434b6b"
   d="m 189.347,298.815 3.754,-9.414 c 0.654,-1.64 1.761,-3.061 3.191,-4.097 l 1.501,-1.087 c 1.173,-0.849 2.759,0.258 2.366,1.652 l -3.052,10.816 c -0.31,1.099 -1.204,1.936 -2.321,2.173 l -0.933,0.198 -0.353,1.211 c -0.16,0.548 -0.52,1.018 -1.017,1.297 -0.016,0.009 -0.032,0.018 -0.049,0.027 -1.803,0.991 -3.849,-0.866 -3.087,-2.776 z"
   id="path1189" />
		<g
   id="g1195">
			<g
   id="g1193">
				<path
   style="fill:#525878"
   d="m 342.706,405.345 -0.074,0.998 c -91.477,-6.849 -128.475,3.594 -128.838,3.699 l -0.281,-0.959 c 0.364,-0.107 37.495,-10.602 129.193,-3.738 z"
   id="path1191" />
			</g>
		</g>
		<g
   id="g1201">
			<g
   id="g1199">
				<path
   style="fill:#434b6b"
   d="m 342.706,320.102 -0.074,-0.998 c -91.477,6.849 -128.475,-3.594 -128.838,-3.699 l -0.281,0.959 c 0.364,0.107 37.495,10.602 129.193,3.738 z"
   id="path1197" />
			</g>
		</g>
		<path
   style="fill:#414042"
   d="m 222.019,408.265 c 0,0 -4.25,-16.333 -4.25,-45.542 h -65.625 c 0,0 -1.125,35.042 12.5,53.792 3.625,4.75 6.5,5.5 8.875,4.75 2.375,-0.75 48.5,-13 48.5,-13 z"
   id="path1203" />
		<path
   style="fill:#414042"
   d="m 338.102,406.057 52.833,5.167 c 0,0 10.333,-7.333 10.333,-48.5 h -59.833 c 10e-4,0 -0.333,29.666 -3.333,43.333 z"
   id="path1205" />
		<path
   style="fill:#1c191a"
   d="m 222.019,317.182 c 0,0 -4.25,16.333 -4.25,45.542 h -65.625 c 0,0 -1.125,-35.042 12.5,-53.792 3.625,-4.75 6.5,-5.5 8.875,-4.75 2.375,0.75 48.5,13 48.5,13 z"
   id="path1207" />
		<path
   style="fill:#1c191a"
   d="m 338.102,319.39 52.833,-5.167 c 0,0 10.333,7.333 10.333,48.5 h -59.833 c 10e-4,10e-4 -0.333,-29.666 -3.333,-43.333 z"
   id="path1209" />
		<g
   id="g1215">
			<path
   style="fill:#58595b"
   d="m 220.57,400.925 c -0.29,-1.761 -0.599,-3.823 -0.902,-6.189 l -61.319,9.621 c 1.411,3.801 3.141,7.421 5.257,10.642 z"
   id="path1211" />
			<path
   style="fill:#58595b"
   d="m 154.022,387.554 c 0.61,3.63 1.415,7.392 2.472,11.102 l 62.809,-6.948 c -0.19,-1.685 -0.373,-3.494 -0.543,-5.421 z"
   id="path1213" />
		</g>
		<path
   style="fill:#58595b"
   d="m 394.906,405.297 c 1.063,-2.301 2.195,-5.426 3.208,-9.624 l -58.183,-2.606 c -0.223,2.367 -0.479,4.664 -0.771,6.808 z"
   id="path1217" />
		<path
   style="fill:#2b2a2b"
   d="m 394.906,320.15 c 1.063,2.301 2.195,5.426 3.208,9.624 l -58.183,2.606 c -0.223,-2.366 -0.479,-4.664 -0.771,-6.808 z"
   id="path1219" />
		<path
   style="fill:#58595b"
   d="m 340.983,377.407 c -0.146,3.181 -0.339,6.631 -0.591,10.089 l 58.93,2.238 c 0.598,-3.527 1.098,-7.616 1.442,-12.327 z"
   id="path1221" />
		<g
   id="g1227">
			<path
   style="fill:#2b2a2b"
   d="m 292.228,409.418 c -1.938,-0.173 -3.911,-0.348 -5.959,-0.527 -1.24,-0.109 -2.483,-0.199 -3.728,-0.28 l -1.314,15.74 c 4.613,-0.098 9.215,-0.2 13.764,-0.305 z"
   id="path1223" />
			<path
   style="fill:#2b2a2b"
   d="m 239.49,425.074 10.52,-15.852 c -6.661,0.615 -13.141,1.48 -19.302,2.488 l -12.611,13.557 c 6.639,-0.03 13.84,-0.098 21.393,-0.193 z"
   id="path1225" />
		</g>
		<g
   id="g1233">
			<path
   style="fill:#ffffff"
   d="m 75.027,399.229 c -0.71,0.858 -1.149,2.039 -1.149,3.344 0,2.623 1.772,4.75 3.958,4.75 0.26,0 0.514,-0.034 0.76,-0.092 -1.541,-3.105 -2.695,-5.89 -3.375,-7.631 -0.051,-0.131 -0.131,-0.246 -0.194,-0.371 z"
   id="path1229" />
			<path
   style="fill:#ffffff"
   d="m 80.211,413.138 c 0,1.667 1.045,3.019 2.333,3.019 0.384,0 0.74,-0.131 1.06,-0.344 -1.03,-1.472 -1.99,-3.017 -2.87,-4.559 -0.322,0.518 -0.523,1.168 -0.523,1.884 z"
   id="path1231" />
		</g>
		<g
   id="g1239">
			<path
   style="fill:#ffffff"
   d="m 75.027,326.218 c -0.71,-0.858 -1.149,-2.039 -1.149,-3.344 0,-2.623 1.772,-4.75 3.958,-4.75 0.26,0 0.514,0.034 0.76,0.092 -1.541,3.105 -2.695,5.89 -3.375,7.631 -0.051,0.131 -0.131,0.246 -0.194,0.371 z"
   id="path1235" />
			<path
   style="fill:#ffffff"
   d="m 80.211,312.309 c 0,-1.667 1.045,-3.019 2.333,-3.019 0.384,0 0.74,0.131 1.06,0.344 -1.03,1.472 -1.99,3.016 -2.87,4.559 -0.322,-0.518 -0.523,-1.167 -0.523,-1.884 z"
   id="path1237" />
		</g>
		<path
   style="fill:#2b2a2b"
   d="m 220.57,324.522 c -0.29,1.761 -0.599,3.823 -0.902,6.189 l -61.319,-9.62 c 1.411,-3.801 3.141,-7.421 5.257,-10.642 z"
   id="path1241" />
	</g>

</svg>
